<svg width="32" height="28" viewBox="0 0 32 28" fill="none" xmlns="http://www.w3.org/2000/svg">
<path d="M29.6296 14.3125H7.1875V3.7063C7.1875 3.16758 7.4015 2.65092 7.78243 2.26999C8.16337 1.88906 8.68003 1.67505 9.21875 1.67505C9.75747 1.67505 10.2741 1.88906 10.6551 2.26999C11.036 2.65092 11.25 3.16758 11.25 3.7063V4.12505H10.3012C10.2524 4.12569 10.2042 4.13603 10.1594 4.15546C10.1146 4.17489 10.0741 4.20302 10.0403 4.23823C10.0064 4.27344 9.97991 4.31502 9.96227 4.36055C9.94463 4.40609 9.93621 4.45467 9.9375 4.50349V5.62505H9.16825C9.12068 5.62404 9.0734 5.63278 9.02934 5.65072C8.98527 5.66867 8.94535 5.69545 8.91202 5.72941C8.87869 5.76337 8.85267 5.80379 8.83555 5.84818C8.81844 5.89258 8.81059 5.94001 8.8125 5.98755V7.61092C8.8125 7.81805 8.96118 7.99992 9.16825 7.99992H14.1737C14.276 7.99731 14.3734 7.9555 14.4457 7.88313C14.5181 7.81076 14.5599 7.71336 14.5625 7.61105V5.98755C14.5588 5.88799 14.5158 5.79395 14.4429 5.72602C14.3701 5.65808 14.2733 5.62177 14.1737 5.62505H13.4375V4.50349C13.4327 4.40149 13.3888 4.30526 13.3149 4.23479C13.241 4.16432 13.1428 4.12502 13.0407 4.12505H12V3.7063C12 2.96867 11.707 2.26124 11.1854 1.73966C10.6638 1.21807 9.95638 0.925049 9.21875 0.925049C8.48111 0.925049 7.77369 1.21807 7.2521 1.73966C6.73052 2.26124 6.4375 2.96867 6.4375 3.7063V14.3125H2.37043C1.84829 14.3125 1.34753 14.52 0.978317 14.8892C0.609105 15.2584 0.401684 15.7592 0.401684 16.2813C0.401684 16.8034 0.609105 17.3042 0.978317 17.6734C1.34753 18.0426 1.84829 18.25 2.37043 18.25H3.125V20.598C3.1242 21.593 3.38013 22.5713 3.86806 23.4384C4.35598 24.3055 5.05938 25.032 5.91025 25.5477L5.02437 26.4302C4.98881 26.4647 4.96045 26.5059 4.94094 26.5514C4.92142 26.5969 4.91114 26.6458 4.91068 26.6953C4.91022 26.7448 4.9196 26.7939 4.93827 26.8398C4.95694 26.8856 4.98454 26.9273 5.01945 26.9625C5.05437 26.9976 5.0959 27.0254 5.14166 27.0443C5.18741 27.0632 5.23647 27.0729 5.28598 27.0727C5.33549 27.0725 5.38447 27.0625 5.43009 27.0432C5.4757 27.024 5.51703 26.9959 5.55168 26.9605L6.60281 25.9042C7.32735 26.217 8.10852 26.3773 8.89768 26.375H23.1023C23.9088 26.3774 24.7068 26.2101 25.4444 25.8839L26.4487 26.8905C26.4833 26.9261 26.5245 26.9545 26.5701 26.9739C26.6157 26.9934 26.6646 27.0037 26.7142 27.0041C26.7638 27.0045 26.8129 26.9951 26.8588 26.9763C26.9047 26.9576 26.9464 26.9299 26.9815 26.8949C27.0166 26.86 27.0444 26.8184 27.0633 26.7725C27.0822 26.7267 27.0918 26.6776 27.0916 26.628C27.0914 26.5785 27.0813 26.5294 27.062 26.4838C27.0426 26.4382 27.0144 26.3968 26.979 26.3622L26.1312 25.5216C26.9707 25.0032 27.6635 24.2787 28.1438 23.4169C28.6241 22.555 28.8758 21.5847 28.875 20.598V18.25H29.6296C30.1517 18.25 30.6525 18.0426 31.0217 17.6734C31.3909 17.3042 31.5983 16.8034 31.5983 16.2813C31.5983 15.7592 31.3909 15.2584 31.0217 14.8892C30.6525 14.52 30.1517 14.3125 29.6296 14.3125ZM13.8125 7.25005H9.5625V6.37505H13.8125V7.25005ZM12.6875 5.62505H10.6875V4.87505H12.6875V5.62505ZM28.125 20.598C28.1254 21.5239 27.8705 22.432 27.3883 23.2224C26.9061 24.0128 26.2152 24.6549 25.3917 25.0781C25.3575 25.0883 25.3252 25.1039 25.2959 25.1243C24.6124 25.4562 23.862 25.6274 23.1022 25.625H8.89768C8.23772 25.6251 7.58423 25.495 6.97456 25.2424C6.36489 24.9897 5.81099 24.6193 5.34453 24.1525C4.87807 23.6856 4.50819 23.1314 4.25604 22.5215C4.00389 21.9116 3.8744 21.258 3.875 20.598V18.25H28.125V20.598ZM29.6296 17.5H2.37043C2.0472 17.5 1.73721 17.3716 1.50865 17.1431C1.28009 16.9145 1.15168 16.6045 1.15168 16.2813C1.15168 15.9581 1.28009 15.6481 1.50865 15.4195C1.73721 15.191 2.0472 15.0625 2.37043 15.0625H29.6296C29.9528 15.0625 30.2628 15.191 30.4913 15.4195C30.7199 15.6481 30.8483 15.9581 30.8483 16.2813C30.8483 16.6045 30.7199 16.9145 30.4913 17.1431C30.2628 17.3716 29.9528 17.5 29.6296 17.5Z" fill="white"/>
</svg>
