<svg width="30" height="30" viewBox="0 0 30 30" fill="none" xmlns="http://www.w3.org/2000/svg">
<g clip-path="url(#clip0)">
<path d="M27.4207 26.705L23.449 17.1166C23.3478 16.8724 23.0678 16.7563 22.8235 16.8575C22.5793 16.9587 22.4632 17.2388 22.5645 17.483L26.155 26.1511L22.8799 25.2022C22.6649 25.1398 22.4353 25.2349 22.3274 25.4311L20.6826 28.4179L16.83 19.1168C21.2766 18.2593 24.6458 14.339 24.6458 9.64589C24.6458 4.32715 20.3187 0 15 0C9.68125 0 5.3541 4.32715 5.3541 9.64589C5.3541 11.8002 6.06414 13.7917 7.26236 15.3991L2.57929 26.705C2.50889 26.875 2.54214 27.0703 2.66489 27.2074C2.78757 27.3446 2.9781 27.3992 3.15485 27.348L7.01865 26.2284L8.95908 29.7522C9.04359 29.9056 9.20463 30 9.37831 30C9.38712 30 9.396 29.9997 9.40487 29.9993C9.58863 29.9891 9.75025 29.8745 9.82072 29.7045L13.5315 20.7458C13.6327 20.5015 13.5167 20.2215 13.2724 20.1203C13.0282 20.0191 12.7481 20.1351 12.647 20.3794L9.31729 28.4179L7.67259 25.4311C7.56459 25.2349 7.33487 25.1398 7.12002 25.2022L3.84504 26.1511L7.95548 16.2276C9.71706 18.1118 12.2231 19.2917 15 19.2917C15.2867 19.2917 15.5702 19.2784 15.8505 19.2538L20.1793 29.7045C20.2497 29.8745 20.4114 29.9891 20.5951 29.9992C20.6041 29.9997 20.6129 30 20.6217 30C20.7954 30 20.9565 29.9056 21.0409 29.7522L22.9814 26.2284L26.8452 27.348C27.0221 27.3993 27.2124 27.3446 27.3352 27.2074C27.4579 27.0703 27.4911 26.875 27.4207 26.705ZM6.31155 9.64589C6.31155 4.85509 10.2092 0.957447 15 0.957447C19.7908 0.957447 23.6884 4.85509 23.6884 9.64589C23.6884 14.4367 19.7908 18.3343 15 18.3343C10.2092 18.3343 6.31155 14.4367 6.31155 9.64589Z" fill="white"/>
<path d="M20.5314 7.84862C20.4763 7.67896 20.3313 7.55398 20.1553 7.52443L16.934 6.98386L15.4245 4.08732C15.3421 3.92909 15.1785 3.82983 15 3.82983C14.8216 3.82983 14.6579 3.92909 14.5755 4.08732L13.0659 6.98386L9.84465 7.52443C9.66867 7.55392 9.52372 7.6789 9.46857 7.84862C9.41342 8.01834 9.45721 8.2046 9.58225 8.33194L11.8705 10.6627L11.3893 13.8934C11.363 14.0699 11.437 14.2463 11.5814 14.3512C11.7257 14.456 11.9164 14.4719 12.0761 14.3925L15 12.9364L17.9238 14.3925C17.9914 14.4261 18.0644 14.4427 18.1372 14.4427C18.2365 14.4427 18.3353 14.4118 18.4186 14.3513C18.563 14.2463 18.637 14.0699 18.6107 13.8934L18.1295 10.6627L20.4178 8.33194C20.5428 8.2046 20.5866 8.01834 20.5314 7.84862ZM17.2792 10.1621C17.174 10.2692 17.1252 10.4195 17.1474 10.568L17.5284 13.1259L15.2134 11.973C15.1462 11.9396 15.0731 11.9228 15 11.9228C14.9269 11.9228 14.8538 11.9395 14.7866 11.973L12.4716 13.1259L12.8527 10.568C12.8748 10.4195 12.826 10.2692 12.7208 10.1621L10.909 8.31662L13.4595 7.88858C13.6075 7.86375 13.7354 7.77088 13.8048 7.63773L15 5.34439L16.1952 7.63779C16.2647 7.77094 16.3924 7.86381 16.5405 7.88864L19.091 8.31669L17.2792 10.1621Z" fill="white"/>
<path d="M22.2518 10.1288C21.9897 10.0937 21.749 10.2783 21.7144 10.5405C21.2703 13.892 18.3837 16.4195 15 16.4195C11.2651 16.4195 8.22644 13.3809 8.22644 9.64592C8.22644 5.91092 11.2651 2.87236 15 2.87236C18.3838 2.87236 21.2703 5.39977 21.7144 8.75134C21.749 9.01349 21.9901 9.19822 22.2518 9.16304C22.5139 9.12832 22.6983 8.88768 22.6635 8.6256C22.1567 4.7999 18.8621 1.91492 15 1.91492C10.7371 1.91492 7.26899 5.38298 7.26899 9.64592C7.26899 13.9089 10.7371 17.3769 15 17.3769C18.8621 17.3769 22.1567 14.4919 22.6635 10.6662C22.6983 10.4042 22.5139 10.1635 22.2518 10.1288Z" fill="white"/>
</g>
<defs>
<clipPath id="clip0">
<rect width="30" height="30" fill="white"/>
</clipPath>
</defs>
</svg>
