<svg width="30" height="30" viewBox="0 0 30 30" fill="none" xmlns="http://www.w3.org/2000/svg">
<path d="M29.5371 6.05316H27.0945C27.1654 5.95359 27.2297 5.84899 27.286 5.73936C27.6092 5.1081 27.6529 4.36469 27.406 3.69955L26.6658 1.7101C26.419 1.04565 25.9006 0.511442 25.2439 0.244564C24.5866 -0.022542 23.842 -0.00125589 23.2009 0.303158L17.3429 3.08523C17.0534 2.87832 16.6993 2.7561 16.3171 2.7561H13.6831C13.3008 2.7561 12.9465 2.87855 12.657 3.08546L6.79919 0.30293C6.15809 -0.00125586 5.41354 -0.022542 4.75618 0.244564C4.09952 0.511442 3.5811 1.04565 3.33436 1.70987L2.59416 3.69978C2.34719 4.36469 2.39091 5.1081 2.71432 5.73936C2.7704 5.84899 2.83494 5.95382 2.9059 6.05316H0.46303C0.207368 6.05316 0 6.2603 0 6.51619V9.84941C0 10.1051 0.207368 10.3124 0.46303 10.3124C0.718692 10.3124 0.92606 10.1051 0.92606 9.84941V6.97899H4.14209C4.19359 6.99707 4.24578 7.01378 4.29865 7.02843L8.18576 8.09846C7.32196 9.42209 6.56001 10.8144 5.90769 12.257H0.92606V11.7013C0.92606 11.4456 0.718692 11.2385 0.46303 11.2385C0.207368 11.2385 0 11.4456 0 11.7013V12.7201C0 12.9757 0.207368 13.1831 0.46303 13.1831H2.11419V29.575C2.11419 29.8309 2.32156 30.038 2.57722 30.038H27.4229C27.6786 30.038 27.8859 29.8309 27.8859 29.575V26.8865C27.8859 26.6309 27.6786 26.4235 27.4229 26.4235C27.167 26.4235 26.9599 26.6309 26.9599 26.8865V29.1122H17.7778V13.4678C19.0893 15.9519 19.9771 18.6529 20.3857 21.4437C20.4127 21.6284 20.5482 21.7788 20.7292 21.825C20.7672 21.8349 20.8057 21.8394 20.8439 21.8394C20.9869 21.8394 21.1247 21.7731 21.2135 21.6552C21.8791 20.7722 22.498 19.8269 23.0567 18.8399C23.9924 19.4771 24.9008 20.1876 25.7628 20.9566C25.9082 21.0862 26.1192 21.1111 26.2906 21.0187C26.4621 20.9264 26.5575 20.7367 26.5291 20.544C26.1595 18.0224 25.4703 15.5426 24.4934 13.1831H26.9596V25.0344C26.9596 25.2903 27.167 25.4975 27.4227 25.4975C27.6786 25.4975 27.8857 25.2903 27.8857 25.0344V13.1831H29.5371C29.7928 13.1831 29.9999 12.9757 29.9999 12.7201V6.51619C30.0001 6.2603 29.793 6.05316 29.5371 6.05316ZM23.598 1.1395C24.0112 0.943573 24.4717 0.930298 24.8954 1.10242C25.3183 1.27431 25.6388 1.60459 25.7978 2.03283L26.5378 4.02205C26.6971 4.45052 26.6699 4.91057 26.4616 5.3173C26.2535 5.72379 25.8963 6.01448 25.4559 6.13555L18.0856 8.1646V5.9394C19.7423 4.92499 23.8722 2.83277 24.9002 4.28366C25.0478 4.49218 25.3366 4.54184 25.5454 4.39398C25.7541 4.24613 25.8036 3.95705 25.6557 3.74853C24.8624 2.62861 23.1906 2.57414 20.6864 3.58694C19.6549 4.00397 18.7025 4.513 18.0856 4.86617V4.52445C18.0856 4.27657 18.0341 4.04036 17.9417 3.8259L23.598 1.1395ZM13.6831 3.68193H16.3171C16.7817 3.68193 17.1596 4.06004 17.1596 4.52445V8.3516C17.1596 8.81623 16.7817 9.19412 16.3171 9.19412H13.6831C13.2184 9.19412 12.8406 8.81623 12.8406 8.3516V4.52445C12.8406 4.05981 13.2184 3.68193 13.6831 3.68193ZM12.9049 12.2568C13.3478 11.5209 13.8298 10.8077 14.3484 10.1202H15.6512C16.1701 10.8077 16.6521 11.5209 17.0948 12.2568H12.9049ZM3.53853 5.3173C3.33024 4.91057 3.30301 4.45052 3.46208 4.02228L4.20252 2.0326C4.36136 1.60459 4.6818 1.27431 5.10477 1.10242C5.52821 0.930298 5.98895 0.943573 6.40185 1.1395L12.0585 3.82635C11.966 4.04059 11.9145 4.27657 11.9145 4.52468V4.89272C11.2997 4.53887 10.3258 4.01473 9.26792 3.58694C6.76394 2.57414 5.09196 2.62861 4.29865 3.74853C4.15079 3.95705 4.20023 4.24613 4.40897 4.39398C4.61771 4.54184 4.90656 4.4924 5.05419 4.28366C6.09172 2.81904 10.2897 4.96459 11.9145 5.96756V8.1646L4.54447 6.13578C4.10387 6.01448 3.74658 5.72379 3.53853 5.3173ZM12.1223 9.18222C12.3528 9.61343 12.7566 9.93867 13.2402 10.0639C11.0747 13.0851 9.58401 16.5566 8.88477 20.2055C8.3929 19.4868 7.93308 18.7335 7.51216 17.9555C7.45059 17.8415 7.34439 17.7587 7.21873 17.7269C7.09331 17.6951 6.96033 17.7173 6.85206 17.788C6.08096 18.2908 5.32587 18.8425 4.59665 19.4348C5.34762 15.493 6.89921 11.6921 9.12418 8.35686L12.1223 9.18222ZM3.04025 13.1831H5.50669C4.52982 15.5426 3.84065 18.0221 3.47078 20.544C3.44263 20.7367 3.53784 20.9264 3.70927 21.0187C3.88094 21.1109 4.09174 21.0862 4.23708 20.9566C5.09905 20.1876 6.00749 19.4771 6.94339 18.8399C7.50209 19.8269 8.12076 20.7719 8.78658 21.6552C8.87539 21.7731 9.01318 21.8397 9.15623 21.8397C9.19445 21.8397 9.2329 21.8349 9.2709 21.825C9.45194 21.7788 9.58721 21.6284 9.61422 21.4437C10.023 18.6529 10.9108 15.9517 12.2221 13.4676V29.1122H3.04025V13.1831ZM13.1482 29.1122V13.1831H16.852V29.1122H13.1482ZM23.1481 17.788C23.0398 17.7173 22.9066 17.6953 22.7814 17.7271C22.656 17.7589 22.5495 17.8418 22.488 17.9555C22.067 18.7335 21.6072 19.487 21.1154 20.2055C20.4161 16.5564 18.9254 13.0851 16.7597 10.0641C17.2433 9.93913 17.6473 9.61366 17.8778 9.18222L20.8766 8.35664C23.1011 11.6926 24.6527 15.4934 25.4037 19.4348C24.6742 18.8425 23.9192 18.2908 23.1481 17.788ZM29.0741 12.257H24.0927C23.4403 10.8144 22.6784 9.42209 21.8148 8.09846L25.7015 7.02843C25.7543 7.01378 25.8065 6.99707 25.858 6.97899H29.0741V12.257Z" fill="white"/>
</svg>
