<svg width="35" height="16" viewBox="0 0 35 16" fill="none" xmlns="http://www.w3.org/2000/svg">
<path d="M34.4826 5.59716H32.031V3.13906C32.031 2.39636 31.3967 1.79211 30.617 1.79211H28.9552C28.8237 1.79211 28.6967 1.81061 28.5759 1.84278V1.34695C28.5759 0.604252 27.9416 0 27.1619 0H24.4168C23.6371 0 23.0028 0.604187 23.0028 1.34695V5.59716H11.997V1.34695C11.997 0.604252 11.3627 0 10.583 0H7.83785C7.05821 0 6.42391 0.604187 6.42391 1.34695V1.84278C6.30298 1.81061 6.17611 1.79211 6.04459 1.79211H4.38291C3.60328 1.79211 2.96897 2.3963 2.96897 3.13906V5.59716H0.517273C0.231532 5.59716 0 5.81779 0 6.08992V9.91008C0 10.1822 0.231532 10.4028 0.517273 10.4028H2.96897V12.8609C2.96897 13.6036 3.60321 14.2079 4.38291 14.2079H6.04465C6.17618 14.2079 6.30312 14.1893 6.42398 14.1572V14.6531C6.42398 15.3957 7.05821 16 7.83792 16H10.5831C11.3627 16 11.997 15.3957 11.997 14.6531V10.4028H23.003V14.6531C23.003 15.3957 23.6373 16 24.4169 16H27.1621C27.9417 16 28.576 15.3958 28.576 14.6531V14.1572C28.6969 14.1894 28.8238 14.2079 28.9553 14.2079H30.6172C31.3968 14.2079 32.0311 13.6037 32.0311 12.8609V10.4028H34.4827C34.7685 10.4028 35 10.1822 35 9.91008V6.08992C34.9999 5.81779 34.7683 5.59716 34.4826 5.59716ZM2.96897 9.41731H1.03462V6.58269H2.96897V9.41731ZM6.42398 12.861C6.42398 13.0602 6.25383 13.2224 6.04465 13.2224H4.38291C4.1738 13.2224 4.00359 13.0603 4.00359 12.861V9.91008V6.08992V3.139C4.00359 2.93973 4.1738 2.77764 4.38291 2.77764H6.04465C6.25383 2.77764 6.42398 2.93973 6.42398 3.139V12.861ZM10.9623 6.08999V9.91014V14.6531C10.9623 14.8523 10.7921 15.0144 10.583 15.0144H7.83785C7.62874 15.0144 7.45853 14.8523 7.45853 14.6531V12.8609V3.139V1.34695C7.45853 1.14768 7.62874 0.985596 7.83785 0.985596H10.583C10.7921 0.985596 10.9623 1.14768 10.9623 1.34695V6.08999ZM23.0028 9.41731H11.997V6.58269H23.0028V9.41731ZM27.5413 3.13893V12.8609V14.6531C27.5413 14.8524 27.3711 15.0145 27.162 15.0145H24.4168C24.2077 15.0145 24.0375 14.8524 24.0375 14.6531V9.91014V6.08999V1.34701C24.0375 1.14775 24.2077 0.985661 24.4168 0.985661H27.162C27.3711 0.985661 27.5413 1.14775 27.5413 1.34701V3.13893ZM30.9964 6.08992V9.91008V12.861C30.9964 13.0603 30.8262 13.2224 30.6171 13.2224H28.9553C28.7462 13.2224 28.576 13.0603 28.576 12.861V3.139C28.576 2.93973 28.7462 2.77764 28.9553 2.77764H30.6171C30.8262 2.77764 30.9964 2.93973 30.9964 3.139V6.08992ZM33.9652 9.41731H32.031V6.58269H33.9652V9.41731Z" fill="white"/>
</svg>
