<svg width="28" height="30" viewBox="0 0 28 30" fill="none" xmlns="http://www.w3.org/2000/svg">
<path d="M26.9517 18.7167C27.3824 18.286 27.6198 17.7131 27.6198 17.104C27.6198 16.7786 27.355 16.5138 27.0295 16.5138H18.4131L17.1858 15.4852L15.691 8.39718C15.4239 7.1317 14.5544 6.07198 13.3649 5.56249L12.3944 5.14753C12.3186 5.11526 12.242 5.08528 12.1646 5.05667C12.4814 4.70099 12.6746 4.23247 12.6746 3.71977V2.01301C12.6746 0.903164 11.7714 0 10.6615 0H10.2972C9.1871 0 8.28393 0.903164 8.28393 2.01301V3.71977C8.28393 4.21919 8.46727 4.6765 8.76962 5.02874C8.67807 5.06079 8.58743 5.09535 8.49771 5.13288L7.5094 5.54716C6.2707 6.06626 5.38401 7.16466 5.13774 8.48553L4.48062 12.013C4.43599 12.2518 4.59346 12.4811 4.83195 12.5257C4.85919 12.5308 4.88643 12.5331 4.91298 12.5331C5.12057 12.5331 5.30528 12.3854 5.34465 12.1742L6.00176 8.64666C6.19357 7.61784 6.88433 6.76206 7.84906 6.35785L8.83737 5.94335C9.14796 5.81335 9.4732 5.72248 9.80531 5.67167C9.96278 5.71149 10.1273 5.73278 10.2972 5.73278H10.6615C10.8165 5.73278 10.9671 5.71447 11.1122 5.68128C11.434 5.73553 11.7487 5.82731 12.0488 5.95571L13.019 6.37044C13.9455 6.76732 14.623 7.5929 14.8311 8.57869L16.3261 15.6678C16.3653 15.8573 16.4687 16.0306 16.6179 16.156L17.0448 16.5138H16.6509C16.119 16.5138 15.6548 16.154 15.5221 15.6385L13.9851 9.67274C13.9197 9.42188 13.6855 9.2635 13.4278 9.29669C13.1705 9.32987 12.9838 9.54205 12.9838 9.8016V14.3144H11.7133C11.6473 14.2952 11.5759 14.2909 11.5041 14.3053C11.4915 14.3078 11.4796 14.311 11.4674 14.3144H7.85112L7.6671 9.61575C7.65863 9.36993 7.46729 9.16989 7.22193 9.15043C6.97634 9.13098 6.7557 9.29897 6.709 9.53976L5.53576 15.5252C5.42338 16.0981 4.91824 16.5138 4.33459 16.5138H3.77132L4.47467 15.9008C4.60994 15.7841 4.70241 15.6223 4.73491 15.4456L5.00499 13.9963C5.04939 13.7576 4.89215 13.5282 4.65343 13.4838C4.41493 13.4394 4.18536 13.5967 4.14096 13.8354L3.87615 15.2565L2.43397 16.5138H0.938001C0.782591 16.5138 0.635649 16.574 0.523956 16.6831C0.521667 16.6854 0.519378 16.6877 0.517089 16.69C0.407913 16.8017 0.347717 16.9486 0.347717 17.104C0.347717 18.205 1.13598 19.129 2.17899 19.3395V29.1056H1.64067C1.39805 29.1056 1.20121 29.3025 1.20121 29.5451C1.20121 29.7879 1.39805 29.9845 1.64067 29.9845H2.50515C2.54131 29.9944 2.57931 30.0001 2.61867 30.0001H25.3491C25.3884 30.0001 25.4264 29.9944 25.4626 29.9845H26.3271C26.5699 29.9845 26.7665 29.7879 26.7665 29.5451C26.7665 29.3025 26.5699 29.1056 26.3271 29.1056H25.7885V19.3404C26.2264 19.253 26.6292 19.039 26.9517 18.7167V18.7167ZM9.16284 3.71977V2.01301C9.16284 1.38771 9.67164 0.878903 10.2972 0.878903H10.6615C11.2869 0.878903 11.7957 1.38771 11.7957 2.01301V3.71977C11.7957 4.34508 11.2869 4.85388 10.6615 4.85388H10.2972C9.67164 4.85388 9.16284 4.34508 9.16284 3.71977ZM14.6711 15.8578C14.7329 16.0981 14.8363 16.3188 14.9716 16.5138H14.3683L13.8627 14.6942V12.7203L14.6711 15.8578ZM13.0893 15.1936L14.0927 18.8051C14.1108 18.8699 14.1243 18.9367 14.1341 19.0088C14.1435 19.0731 14.1483 19.1418 14.1483 19.2125V20.7925C13.4344 21.06 12.6885 21.2546 11.9307 21.3704C11.8774 21.3786 11.824 21.3862 11.7705 21.3937C11.412 20.9518 10.8627 20.1136 10.9479 19.2081C10.9971 18.6854 11.2617 18.0374 11.2642 18.0312C11.3837 17.7415 11.489 17.57 11.5906 17.4046C11.6698 17.2757 11.7517 17.1423 11.8316 16.9695C12.0705 16.4524 12.1598 15.8566 12.1001 15.1936H13.0893ZM8.17956 29.1056C8.47001 28.8964 8.71469 28.625 8.89001 28.3094L9.50204 27.2066L9.55377 27.3398L8.85499 29.1056H8.17956ZM8.65999 25.0414L9.08776 26.1416L8.12143 27.8827C7.92024 28.2451 7.57601 28.5174 7.1773 28.6296L7.04317 28.6671L8.65999 25.0414ZM9.82888 29.0333L10.4345 27.503C10.4752 27.4 10.4757 27.2854 10.4356 27.1819L9.98154 26.0148C9.98132 26.0139 9.98109 26.0132 9.98063 26.0125L9.10195 23.7528C9.10035 23.7487 9.09875 23.7446 9.09715 23.7402L8.51762 22.2493C9.00491 22.3207 9.49677 22.3626 9.98887 22.3736L10.4276 23.9895C10.4279 23.9904 10.4281 23.9911 10.4283 23.9918L11.3475 27.3771C11.3736 27.5012 11.3395 27.6319 11.256 27.728L10.5059 28.5877C10.323 28.7971 10.0882 28.95 9.82888 29.0333V29.0333ZM10.8959 22.3594C10.9966 22.3541 11.0971 22.3477 11.1978 22.3399L10.9914 22.7114L10.8959 22.3594ZM11.2173 15.1936C11.2772 15.734 11.2159 16.2064 11.0337 16.6007C10.9756 16.7264 10.9135 16.8273 10.8417 16.9443C10.7275 17.1304 10.5979 17.3412 10.4514 17.6966C10.4192 17.7754 10.1333 18.4849 10.0729 19.1257C10.0285 19.5995 10.0774 20.4697 10.7474 21.4871C10.6057 21.4933 10.4643 21.4972 10.323 21.4979C9.52355 21.5029 8.7211 21.4207 7.9381 21.2534C7.931 21.2516 7.92368 21.2498 7.91635 21.2484C7.38947 21.1353 6.86556 20.982 6.35905 20.7927V19.2869C6.35905 19.1978 6.36683 19.1088 6.38216 19.0221C6.39773 18.9353 6.41993 18.8513 6.44854 18.7721L7.73737 15.1936H11.2173ZM6.39841 15.6944L6.92118 13.0272L6.98618 14.6857L6.32769 16.5138H6.04342C6.21508 16.2748 6.3389 15.9974 6.39841 15.6944ZM1.2566 17.3927H6.01115L5.62205 18.4732C5.61816 18.484 5.61473 18.495 5.61106 18.5059H2.62073C1.95103 18.5023 1.38981 18.0244 1.2566 17.3927V17.3927ZM3.0579 19.3848H5.48014V20.8083C5.48014 21.1628 5.70216 21.4846 6.03335 21.6093C6.51102 21.7888 7.00312 21.9382 7.4991 22.0552L8.21184 23.8883L6.23591 28.3194C6.12055 28.5788 6.13726 28.8669 6.27367 29.1056H3.0579V19.3848ZM11.2205 29.1056L11.9186 28.3055C12.188 27.996 12.2942 27.5731 12.2028 27.1739C12.2015 27.1682 12.2001 27.1624 12.1985 27.1567L11.3216 23.9272L12.2788 22.2035C13.0279 22.0749 13.7652 21.876 14.4729 21.6093C14.8043 21.4848 15.0272 21.1626 15.0272 20.8076V19.2123C15.0272 19.0992 15.0194 18.9882 15.0046 18.8863C14.9901 18.7795 14.9682 18.6733 14.9396 18.57L14.6125 17.3927H26.7114C26.6562 17.657 26.5255 17.8996 26.33 18.0951C26.0675 18.3579 25.7183 18.5037 25.3491 18.5059H16.8775C16.6347 18.5059 16.438 18.7025 16.438 18.9454C16.438 19.188 16.6347 19.3848 16.8775 19.3848H24.9096V29.1056H11.2205Z" fill="white"/>
</svg>
