<svg width="30" height="20" viewBox="0 0 30 20" fill="none" xmlns="http://www.w3.org/2000/svg">
<path d="M29.1102 16.197L20.3138 11.7028C19.8829 11.4531 18.9483 10.6296 18.4465 9.2661C17.9756 7.98645 16.8821 7.17202 15.473 7.02384C15.5794 6.32847 15.9482 5.69752 16.5061 5.28426C17.1793 4.78557 17.5622 3.98776 17.5304 3.15014C17.4805 1.83615 16.4122 0.767861 15.0982 0.717957C14.4019 0.689718 13.7442 0.94223 13.2439 1.42389C12.7434 1.90578 12.4677 2.55365 12.4677 3.24831C12.4677 3.49154 12.6649 3.68863 12.9081 3.68863C13.1512 3.68863 13.3484 3.49154 13.3484 3.24831C13.3484 2.79524 13.5282 2.37264 13.8547 2.05831C14.181 1.74421 14.6111 1.58117 15.0648 1.59791C15.9214 1.63049 16.6179 2.32691 16.6504 3.18349C16.6711 3.73032 16.4212 4.25113 15.9819 4.57662C15.2026 5.15392 14.6981 6.04549 14.5842 7.01832C13.1475 7.15024 12.0307 7.96919 11.5534 9.2661C11.0517 10.6296 10.1171 11.4531 9.68622 11.7028L4.97179 14.1114C4.75521 14.2221 4.66937 14.4873 4.77998 14.7039C4.89054 14.9205 5.15591 15.0063 5.37243 14.8957L10.093 12.4838C10.1079 12.4764 11.6158 11.6463 12.3799 9.57021C12.7753 8.49594 13.7302 7.87977 15 7.87977C16.2697 7.87977 17.2247 8.49594 17.62 9.57021C18.3786 11.6315 19.8779 12.4683 19.8929 12.4765C19.8964 12.4784 19.8999 12.4804 19.9034 12.4821L28.7094 16.9813C29.0788 17.17 29.2259 17.6241 29.0371 17.9935C28.8484 18.363 28.3944 18.51 28.0248 18.3212L21.7049 15.0923C21.4883 14.9815 21.2231 15.0674 21.1125 15.2841C21.0018 15.5006 21.0877 15.7658 21.3043 15.8765L24.8302 17.678H5.16976L11.8422 14.2689C13.8196 13.2587 16.1806 13.2587 18.1578 14.2689L19.7349 15.0747C19.9515 15.1855 20.2168 15.0995 20.3274 14.8829C20.438 14.6663 20.3522 14.4011 20.1356 14.2905L18.5585 13.4847C16.3304 12.3463 13.6698 12.3462 11.4416 13.4847L1.97516 18.3213C1.6057 18.5099 1.15158 18.363 0.962883 17.9936C0.77413 17.6241 0.92114 17.1701 1.29054 16.9813L3.79905 15.6997C4.01564 15.589 4.10147 15.3238 3.99086 15.1072C3.88019 14.8906 3.61494 14.8048 3.39842 14.9154L0.889847 16.1971C0.0879835 16.6067 -0.231048 17.5924 0.178632 18.3942C0.377073 18.7826 0.714891 19.0706 1.12991 19.2049C1.54047 19.3377 1.99154 19.3017 2.3758 19.1054L3.44615 18.5586H26.5539L27.6243 19.1054C27.8616 19.2267 28.1148 19.2841 28.3646 19.2841C28.9589 19.2841 29.533 18.9588 29.8215 18.3942C30.2311 17.5924 29.912 16.6067 29.1102 16.197Z" fill="white"/>
</svg>
