<svg width="30" height="30" viewBox="0 0 30 30" fill="none" xmlns="http://www.w3.org/2000/svg">
<path d="M29.9983 26.0917L29.9969 26.0738C29.9945 25.919 29.9819 25.767 29.9616 25.6165L29.5349 20.068C29.8314 19.4056 29.9999 18.6908 29.9999 17.9195C29.9999 17.9084 29.9984 17.9031 29.9984 17.9031H29.9994L29.9965 17.8465C29.9941 17.6525 29.9801 17.4701 29.9569 17.2819L29.0311 3.87095H29.0302C29.0122 1.93548 27.2843 0 25.1611 0H5.32251C3.20071 0 1.47375 1.71674 1.45341 3.83369H1.4529L0.521495 15.9391C0.501676 16.0891 0.488566 16.2411 0.486192 16.3964L0.483818 16.4143H0.483302C0.483818 16.4172 0.483818 16.4516 0.483818 16.4516H0.484747L0.0333418 24.1088C0.0154838 24.2714 0.00722578 24.4437 0.00433547 24.6106L0.000929029 24.6774H0.00144516C0.00144516 24.6774 0 24.6817 0 24.6914C0 27.6265 2.38791 30 5.32261 30H26.129C28.2634 30 30 28.2634 30 26.129C29.9998 26.1163 29.9978 26.1043 29.9983 26.0917ZM1.93537 3.87095H2.41929C2.41929 2.26982 3.72138 0.967739 5.32251 0.967739H25.1611C26.7622 0.967739 28.0643 2.26982 28.0643 3.87095H28.5482L28.0653 3.9043L28.7989 14.5407C27.8219 13.3456 26.3379 12.5806 24.6773 12.5806H4.35477C3.31054 12.5806 2.36366 12.9977 1.66688 13.6722L2.41785 3.90822L1.93537 3.87095ZM1.3121 18.8366C1.70312 19.3344 2.21212 19.7346 2.79803 19.993C2.16412 20.336 1.60959 20.8059 1.16304 21.3653L1.3121 18.8366ZM28.5552 19.8386H28.5498L28.5503 19.8661C27.8279 21.2728 26.3647 22.2579 24.6774 22.2579H7.25799C5.924 22.2579 4.83859 23.3432 4.83859 24.6773C4.83859 26.0114 5.9239 27.0967 7.25799 27.0967H24.6773V26.1289H7.25799C6.45768 26.1289 5.80633 25.4777 5.80633 24.6773C5.80633 23.8769 6.45758 23.2257 7.25799 23.2257H26.1289C27.5878 23.2257 28.795 24.3081 28.9988 25.7109L29.0317 26.1401C29.0252 27.7359 27.726 29.0322 26.1288 29.0322H5.32251C2.92345 29.0322 0.971558 27.0821 0.968151 24.6841L0.997158 24.1867C1.24201 22.0155 3.08696 20.3225 5.32251 20.3225H24.1935C25.2609 20.3225 26.1289 19.4545 26.1289 18.387C26.1289 17.3196 25.2609 16.4516 24.1935 16.4516H4.83869V17.4193H24.1935C24.7271 17.4193 25.1612 17.8534 25.1612 18.387C25.1612 18.9207 24.7271 19.3548 24.1935 19.3548H4.35477C2.75756 19.3548 1.45837 18.0585 1.45207 16.4632L1.485 16.034C1.68867 14.6308 2.89599 13.5483 4.35488 13.5483H24.6774C26.8896 13.5483 28.7172 15.2075 28.9925 17.3457L29.0317 17.8959C29.0298 18.6018 28.8561 19.3548 28.5552 19.8386ZM28.8167 23.3496C28.4151 22.9611 27.9298 22.6606 27.3913 22.4738C27.8708 22.1879 28.301 21.8303 28.6682 21.4137L28.8167 23.3496Z" fill="white"/>
</svg>
