<svg width="34" height="26" viewBox="0 0 34 26" fill="none" xmlns="http://www.w3.org/2000/svg">
<path d="M33.4183 12.4829H30.5418C31.7376 9.76803 31.6084 7.57031 31.1559 6.08362C30.3802 3.43343 27.7624 0.557007 23.884 0.557007C22.8498 0.557007 21.8156 0.750923 20.7491 1.13876C18.9068 1.81746 17.6787 2.56081 17.1293 2.94864C16.5798 2.56081 15.384 1.81746 13.5095 1.13876C12.443 0.750923 11.3764 0.557007 10.3745 0.557007C6.4962 0.557007 3.87833 3.43343 3.10266 6.08362C2.65019 7.66727 2.48859 10.0589 4.0076 13.0646H0.51711C0.226236 13.0646 0 13.2908 0 13.5817C0 13.8726 0.226236 14.0988 0.51711 14.0988H4.62167C4.78327 14.3897 4.97719 14.6806 5.20342 14.9715C8.56464 19.8194 15.8688 25.0874 17.1939 25.4106V25.4429C17.1939 25.4429 17.2262 25.4429 17.2586 25.4106C17.2909 25.4106 17.3232 25.4106 17.3555 25.4106V25.3783C18.4867 24.8289 25.5 20.3042 29.1844 14.9391C29.5399 14.4543 29.8308 13.9696 30.0894 13.4848H33.4829C33.7738 13.4848 34 13.2585 34 12.9677C34 12.6768 33.7091 12.4829 33.4183 12.4829ZM28.2472 14.3897C24.8213 19.3992 18.519 23.4391 17.1616 24.3118C15.7719 23.4391 9.5019 19.3669 6.04373 14.3897C5.97909 14.2927 5.91445 14.1958 5.84981 14.0988H10.6008C10.7947 14.0988 10.9886 14.0019 11.0856 13.808L13.251 9.5418L16.6445 18.2357C16.7091 18.4296 16.9354 18.5589 17.1293 18.5589C17.1293 18.5589 17.1293 18.5589 17.1616 18.5589C17.3878 18.5589 17.5817 18.3973 17.6464 18.1711L20.6198 7.99047L22.2034 13.1293C22.2681 13.3232 22.4297 13.4524 22.6236 13.4848C22.8175 13.5171 23.0114 13.4201 23.1407 13.2585L24.4011 11.4163L25.4677 13.2262C25.5646 13.3878 25.7262 13.4848 25.9202 13.4848H28.8289C28.635 13.808 28.4411 14.0988 28.2472 14.3897ZM29.4106 12.4829H26.2433L24.9183 10.2205C24.8213 10.0589 24.6597 9.96195 24.4658 9.96195C24.2719 9.96195 24.1103 10.0266 24.0133 10.1882L22.9145 11.8042L21.1369 6.01898C21.0722 5.79275 20.846 5.66347 20.6198 5.63115C20.3935 5.63115 20.1673 5.79275 20.1027 6.01898L17.097 16.3935L13.8327 8.05511C13.7681 7.86119 13.5741 7.73191 13.3802 7.73191C13.154 7.73191 12.9924 7.82887 12.8954 8.02279L10.3422 13.0323H5.20342C3.91065 10.673 3.55513 8.41062 4.13688 6.3745C4.81559 4.07982 7.04563 1.62355 10.4068 1.62355C11.3118 1.62355 12.2491 1.81746 13.1863 2.14066C15.5456 3.01328 16.8061 4.01518 16.8384 4.01518C17.0323 4.17678 17.2909 4.17678 17.4848 4.01518C17.4848 4.01518 18.7452 3.01328 21.1369 2.14066C22.0741 1.78514 23.0114 1.62355 23.9164 1.62355C27.2452 1.62355 29.5076 4.07982 30.1863 6.3745C30.7357 8.24902 30.4449 10.3175 29.4106 12.4829Z" fill="white"/>
</svg>
