<svg width="14" height="13" viewBox="0 0 14 13" fill="none" xmlns="http://www.w3.org/2000/svg">
<path d="M9.90568 0H4.08074C2.10262 0 0.493286 1.60941 0.493286 3.58753V9.41247C0.493286 11.3907 2.10262 13 4.08074 13H9.90568C11.884 13 13.4933 11.3906 13.4933 9.41247V3.58753C13.4934 1.60941 11.884 0 9.90568 0ZM12.3399 9.41247C12.3399 10.7547 11.248 11.8466 9.90576 11.8466H4.08074C2.73862 11.8467 1.64671 10.7547 1.64671 9.41247V3.58753C1.64671 2.24541 2.73862 1.15342 4.08074 1.15342H9.90568C11.2479 1.15342 12.3399 2.24541 12.3399 3.58753V9.41247H12.3399Z" fill="white"/>
<path d="M6.99326 3.15039C5.14617 3.15039 3.64349 4.65306 3.64349 6.50014C3.64349 8.34715 5.14617 9.84974 6.99326 9.84974C8.84034 9.84974 10.343 8.34715 10.343 6.50014C10.343 4.65306 8.84034 3.15039 6.99326 3.15039ZM6.99326 8.69625C5.78224 8.69625 4.79691 7.71108 4.79691 6.50007C4.79691 5.28898 5.78216 4.30373 6.99326 4.30373C8.20435 4.30373 9.1896 5.28898 9.1896 6.50007C9.1896 7.71108 8.20427 8.69625 6.99326 8.69625Z" fill="white"/>
<path d="M10.4835 2.17236C10.2613 2.17236 10.043 2.26233 9.88601 2.41996C9.72829 2.57682 9.63763 2.7952 9.63763 3.01819C9.63763 3.24048 9.72837 3.45878 9.88601 3.61641C10.0429 3.77328 10.2613 3.86401 10.4835 3.86401C10.7065 3.86401 10.9241 3.77328 11.0817 3.61641C11.2394 3.45878 11.3293 3.24041 11.3293 3.01819C11.3293 2.7952 11.2394 2.57682 11.0817 2.41996C10.9249 2.26233 10.7065 2.17236 10.4835 2.17236Z" fill="white"/>
</svg>
