<svg width="19" height="11" viewBox="0 0 19 11" fill="none" xmlns="http://www.w3.org/2000/svg">
<path d="M18.3951 9.82886C18.3728 9.7806 18.3519 9.74057 18.3325 9.7085C18.0116 9.13062 17.3985 8.42133 16.4934 7.58041L16.4743 7.56115L16.4647 7.55171L16.455 7.54203H16.4453C16.0346 7.15045 15.7744 6.88716 15.6655 6.75237C15.4662 6.49559 15.4215 6.23567 15.5305 5.97232C15.6074 5.77334 15.8965 5.35313 16.3971 4.71112C16.6604 4.37087 16.8689 4.09817 17.0229 3.89272C18.1334 2.41626 18.6149 1.47278 18.4672 1.06191L18.4099 0.965901C18.3713 0.908097 18.2718 0.855217 18.1115 0.80699C17.9509 0.758865 17.7455 0.750907 17.4951 0.782979L14.7221 0.802134C14.6772 0.786216 14.6131 0.7877 14.5295 0.80699C14.446 0.826281 14.4043 0.83596 14.4043 0.83596L14.356 0.860073L14.3177 0.889042C14.2856 0.908198 14.2503 0.941889 14.2117 0.990048C14.1734 1.03804 14.1413 1.09436 14.1157 1.15854C13.8138 1.93525 13.4705 2.65739 13.0853 3.32494C12.8478 3.72299 12.6296 4.06796 12.4304 4.36004C12.2315 4.65203 12.0646 4.86716 11.9299 5.00506C11.795 5.1431 11.6732 5.25368 11.5639 5.33721C11.4547 5.42078 11.3714 5.45609 11.3137 5.44318C11.2559 5.43026 11.2014 5.41745 11.1498 5.40463C11.06 5.34683 10.9878 5.26821 10.9333 5.16873C10.8786 5.06924 10.8418 4.94402 10.8225 4.79317C10.8034 4.64222 10.7921 4.51238 10.7888 4.40321C10.7858 4.29418 10.7872 4.13996 10.7937 3.94098C10.8004 3.74191 10.8034 3.60721 10.8034 3.53659C10.8034 3.29263 10.8081 3.02786 10.8177 2.74221C10.8274 2.45656 10.8353 2.23024 10.8418 2.0635C10.8484 1.8966 10.8514 1.72002 10.8514 1.53386C10.8514 1.3477 10.8401 1.2017 10.8177 1.09574C10.7956 0.989913 10.7616 0.887188 10.7169 0.787599C10.6718 0.688111 10.6059 0.611152 10.5195 0.556518C10.4328 0.501952 10.3251 0.458649 10.1969 0.426476C9.85667 0.349483 9.42341 0.307833 8.89693 0.301358C7.70305 0.288542 6.93591 0.365637 6.5957 0.53254C6.4609 0.603058 6.33892 0.699409 6.22985 0.82129C6.11428 0.962562 6.09816 1.03966 6.18159 1.05234C6.5668 1.11004 6.83949 1.24807 6.99999 1.46631L7.05783 1.58195C7.10282 1.66538 7.14774 1.8131 7.19269 2.02489C7.23758 2.23668 7.26655 2.47096 7.2793 2.72761C7.31134 3.19628 7.31134 3.59746 7.2793 3.9312C7.24716 4.26508 7.21681 4.52499 7.18784 4.71115C7.15887 4.89731 7.11556 5.04816 7.05783 5.16367C6.99999 5.27921 6.96151 5.34983 6.94222 5.37546C6.92296 5.40109 6.90691 5.41724 6.89416 5.42358C6.81073 5.45555 6.72395 5.47184 6.63415 5.47184C6.5442 5.47184 6.43514 5.42685 6.30678 5.33695C6.17846 5.24704 6.04528 5.12354 5.90724 4.96624C5.76921 4.80892 5.61354 4.58907 5.44016 4.30666C5.26691 4.02425 5.08716 3.69048 4.901 3.30534L4.74698 3.02603C4.6507 2.84635 4.51917 2.58471 4.35227 2.24136C4.18526 1.89788 4.03765 1.56563 3.90933 1.24467C3.85803 1.10987 3.78097 1.00725 3.67828 0.936628L3.63009 0.907658C3.59805 0.882028 3.54662 0.854812 3.47607 0.825809C3.40541 0.796839 3.33169 0.776065 3.2546 0.763283L0.616352 0.782439C0.346757 0.782439 0.163834 0.843514 0.0675168 0.965496L0.0289695 1.0232C0.0097127 1.05534 0 1.10667 0 1.17732C0 1.24794 0.0192568 1.33461 0.0578041 1.43724C0.44294 2.3424 0.861766 3.21536 1.31428 4.05625C1.7668 4.89714 2.16003 5.5745 2.49374 6.08772C2.82751 6.60131 3.16772 7.08604 3.51438 7.54166C3.86103 7.99744 4.0905 8.28953 4.20277 8.41786C4.31517 8.54641 4.40346 8.64253 4.46764 8.70671L4.7084 8.93775C4.86245 9.09184 5.08868 9.27638 5.38718 9.49138C5.68574 9.7065 6.01628 9.9183 6.37895 10.1271C6.74169 10.3355 7.16369 10.5056 7.64518 10.6372C8.1266 10.7689 8.59517 10.8217 9.05096 10.7962H10.1583C10.3828 10.7769 10.553 10.7062 10.6686 10.5844L10.7069 10.5361C10.7327 10.4978 10.7568 10.4383 10.7791 10.3582C10.8016 10.2779 10.8128 10.1895 10.8128 10.0934C10.8062 9.81743 10.8272 9.56871 10.8753 9.34727C10.9232 9.1259 10.9779 8.959 11.0391 8.8466C11.1003 8.73429 11.1693 8.63953 11.2461 8.5627C11.323 8.48571 11.3779 8.43907 11.41 8.42301C11.442 8.40686 11.4675 8.3959 11.4868 8.38932C11.6408 8.338 11.8221 8.3877 12.031 8.53869C12.2396 8.68954 12.4353 8.8758 12.6184 9.09717C12.8013 9.31874 13.0212 9.56732 13.2779 9.84329C13.5347 10.1194 13.7594 10.3246 13.9519 10.4596L14.1444 10.5751C14.2729 10.6522 14.4398 10.7228 14.6453 10.787C14.8503 10.8512 15.03 10.8672 15.1843 10.8351L17.6492 10.7967C17.893 10.7967 18.0827 10.7563 18.2172 10.6762C18.352 10.596 18.4321 10.5076 18.458 10.4115C18.4837 10.3152 18.4851 10.206 18.4629 10.0839C18.44 9.96214 18.4175 9.87698 18.3951 9.82886Z" fill="white"/>
</svg>
