<svg width="1440" height="38" viewBox="0 0 1440 38" fill="none" xmlns="http://www.w3.org/2000/svg">
<path d="M0 0H1440V38H0V0Z" fill="#FF6F61"/>
<path d="M24.6484 11.5938C24.6484 10.8802 24.3906 10.3177 23.875 9.90625C23.3594 9.49479 22.625 9.28906 21.6719 9.28906C20.849 9.28906 20.1693 9.50781 19.6328 9.94531C19.0964 10.3828 18.8281 10.9375 18.8281 11.6094H17.8672C17.8672 11.0052 18.0312 10.4661 18.3594 9.99219C18.6875 9.51302 19.1458 9.14062 19.7344 8.875C20.3281 8.60417 20.974 8.46875 21.6719 8.46875C22.901 8.46875 23.8646 8.74219 24.5625 9.28906C25.2604 9.83594 25.6094 10.612 25.6094 11.6172C25.6094 12.1953 25.4245 12.7109 25.0547 13.1641C24.6849 13.6172 24.1875 13.9531 23.5625 14.1719C25.0417 14.5677 25.7812 15.4818 25.7812 16.9141C25.7812 17.8984 25.4089 18.6849 24.6641 19.2734C23.9245 19.862 22.9271 20.1562 21.6719 20.1562C20.9115 20.1562 20.2188 20.013 19.5938 19.7266C18.9688 19.4349 18.4974 19.0443 18.1797 18.5547C17.862 18.0599 17.7031 17.4896 17.7031 16.8438H18.6641C18.6641 17.5729 18.9479 18.1745 19.5156 18.6484C20.0833 19.1172 20.8021 19.3516 21.6719 19.3516C22.6562 19.3516 23.4271 19.1354 23.9844 18.7031C24.5417 18.2656 24.8203 17.6797 24.8203 16.9453C24.8203 16.1693 24.5729 15.5911 24.0781 15.2109C23.5833 14.8255 22.8203 14.6276 21.7891 14.6172H20.3359V13.7891H21.7422C22.6901 13.7839 23.4115 13.599 23.9062 13.2344C24.401 12.8646 24.6484 12.3177 24.6484 11.5938ZM33.0703 20C32.9766 19.7344 32.9167 19.3411 32.8906 18.8203C32.5625 19.2474 32.1432 19.5781 31.6328 19.8125C31.1276 20.0417 30.5911 20.1562 30.0234 20.1562C29.2109 20.1562 28.5521 19.9297 28.0469 19.4766C27.5469 19.0234 27.2969 18.4505 27.2969 17.7578C27.2969 16.9349 27.638 16.2839 28.3203 15.8047C29.0078 15.3255 29.9635 15.0859 31.1875 15.0859H32.8828V14.125C32.8828 13.5208 32.6953 13.0469 32.3203 12.7031C31.9505 12.3542 31.4089 12.1797 30.6953 12.1797C30.0443 12.1797 29.5052 12.3464 29.0781 12.6797C28.651 13.013 28.4375 13.4141 28.4375 13.8828L27.5 13.875C27.5 13.2031 27.8125 12.6224 28.4375 12.1328C29.0625 11.638 29.8307 11.3906 30.7422 11.3906C31.6849 11.3906 32.4271 11.6276 32.9688 12.1016C33.5156 12.5703 33.7969 13.2266 33.8125 14.0703V18.0703C33.8125 18.888 33.8984 19.5 34.0703 19.9062V20H33.0703ZM30.1328 19.3281C30.7578 19.3281 31.3151 19.1771 31.8047 18.875C32.2995 18.5729 32.6589 18.1693 32.8828 17.6641V15.8047H31.2109C30.2786 15.8151 29.5495 15.987 29.0234 16.3203C28.4974 16.6484 28.2344 17.1016 28.2344 17.6797C28.2344 18.1536 28.4089 18.5469 28.7578 18.8594C29.112 19.1719 29.5703 19.3281 30.1328 19.3281ZM42.8047 20H41.8672V12.3516H37.3125V20H36.375V11.5469H42.8047V20ZM50.8672 11.5469H51.8047V20H50.8672V13.0547L46.3047 20H45.375V11.5469H46.3047V18.5L50.8672 11.5469ZM57.4375 19.3672C58.0885 19.3672 58.6328 19.1849 59.0703 18.8203C59.513 18.4505 59.7526 17.974 59.7891 17.3906H60.6875C60.6615 17.9062 60.5 18.3776 60.2031 18.8047C59.9062 19.2266 59.5104 19.5573 59.0156 19.7969C58.526 20.0365 58 20.1562 57.4375 20.1562C56.3281 20.1562 55.4479 19.7708 54.7969 19C54.151 18.2292 53.8281 17.1927 53.8281 15.8906V15.6094C53.8281 14.776 53.974 14.0391 54.2656 13.3984C54.5573 12.7578 54.974 12.263 55.5156 11.9141C56.0625 11.5651 56.7005 11.3906 57.4297 11.3906C58.3568 11.3906 59.1198 11.6667 59.7188 12.2188C60.3229 12.7708 60.6458 13.4974 60.6875 14.3984H59.7891C59.7474 13.737 59.5078 13.2031 59.0703 12.7969C58.638 12.3906 58.0911 12.1875 57.4297 12.1875C56.5859 12.1875 55.9297 12.4922 55.4609 13.1016C54.9974 13.7109 54.7656 14.5651 54.7656 15.6641V15.9375C54.7656 17.0156 54.9974 17.8568 55.4609 18.4609C55.9297 19.0651 56.5885 19.3672 57.4375 19.3672ZM67.8984 20C67.8047 19.7344 67.7448 19.3411 67.7188 18.8203C67.3906 19.2474 66.9714 19.5781 66.4609 19.8125C65.9557 20.0417 65.4193 20.1562 64.8516 20.1562C64.0391 20.1562 63.3802 19.9297 62.875 19.4766C62.375 19.0234 62.125 18.4505 62.125 17.7578C62.125 16.9349 62.4661 16.2839 63.1484 15.8047C63.8359 15.3255 64.7917 15.0859 66.0156 15.0859H67.7109V14.125C67.7109 13.5208 67.5234 13.0469 67.1484 12.7031C66.7786 12.3542 66.237 12.1797 65.5234 12.1797C64.8724 12.1797 64.3333 12.3464 63.9062 12.6797C63.4792 13.013 63.2656 13.4141 63.2656 13.8828L62.3281 13.875C62.3281 13.2031 62.6406 12.6224 63.2656 12.1328C63.8906 11.638 64.6589 11.3906 65.5703 11.3906C66.513 11.3906 67.2552 11.6276 67.7969 12.1016C68.3438 12.5703 68.625 13.2266 68.6406 14.0703V18.0703C68.6406 18.888 68.7266 19.5 68.8984 19.9062V20H67.8984ZM64.9609 19.3281C65.5859 19.3281 66.1432 19.1771 66.6328 18.875C67.1276 18.5729 67.487 18.1693 67.7109 17.6641V15.8047H66.0391C65.1068 15.8151 64.3776 15.987 63.8516 16.3203C63.3255 16.6484 63.0625 17.1016 63.0625 17.6797C63.0625 18.1536 63.237 18.5469 63.5859 18.8594C63.9401 19.1719 64.3984 19.3281 64.9609 19.3281ZM77.0859 12.3438H74.0078V20H73.0703V12.3438H70.1094V11.5469H77.0859V12.3438ZM79.6562 14.6172H82.0938C82.7188 14.6172 83.2656 14.7318 83.7344 14.9609C84.2083 15.1849 84.5651 15.4974 84.8047 15.8984C85.0495 16.2995 85.1719 16.7656 85.1719 17.2969C85.1719 18.1146 84.8906 18.7708 84.3281 19.2656C83.7708 19.7552 83.0156 20 82.0625 20H78.7266V11.5469H79.6562V14.6172ZM79.6562 15.4141V19.2109H82.0781C82.75 19.2109 83.276 19.0417 83.6562 18.7031C84.0417 18.3646 84.2344 17.901 84.2344 17.3125C84.2344 16.75 84.0469 16.2969 83.6719 15.9531C83.3021 15.6042 82.7943 15.4245 82.1484 15.4141H79.6562ZM90.3125 19.3672C90.9635 19.3672 91.5078 19.1849 91.9453 18.8203C92.388 18.4505 92.6276 17.974 92.6641 17.3906H93.5625C93.5365 17.9062 93.375 18.3776 93.0781 18.8047C92.7812 19.2266 92.3854 19.5573 91.8906 19.7969C91.401 20.0365 90.875 20.1562 90.3125 20.1562C89.2031 20.1562 88.3229 19.7708 87.6719 19C87.026 18.2292 86.7031 17.1927 86.7031 15.8906V15.6094C86.7031 14.776 86.849 14.0391 87.1406 13.3984C87.4323 12.7578 87.849 12.263 88.3906 11.9141C88.9375 11.5651 89.5755 11.3906 90.3047 11.3906C91.2318 11.3906 91.9948 11.6667 92.5938 12.2188C93.1979 12.7708 93.5208 13.4974 93.5625 14.3984H92.6641C92.6224 13.737 92.3828 13.2031 91.9453 12.7969C91.513 12.3906 90.9661 12.1875 90.3047 12.1875C89.4609 12.1875 88.8047 12.4922 88.3359 13.1016C87.8724 13.7109 87.6406 14.5651 87.6406 15.6641V15.9375C87.6406 17.0156 87.8724 17.8568 88.3359 18.4609C88.8047 19.0651 89.4635 19.3672 90.3125 19.3672ZM101.602 11.5469V20H100.664V16.5938H98.0391L95.9766 20H94.9453L97.0703 16.4766C96.4922 16.3255 96.0417 16.0339 95.7188 15.6016C95.401 15.1693 95.2422 14.6589 95.2422 14.0703C95.2422 13.3047 95.5156 12.6927 96.0625 12.2344C96.6146 11.776 97.3594 11.5469 98.2969 11.5469H101.602ZM96.1797 14.0859C96.1797 14.5807 96.3359 14.987 96.6484 15.3047C96.9661 15.6224 97.4062 15.7865 97.9688 15.7969H100.664V12.3438H98.2734C97.6224 12.3438 97.1094 12.5 96.7344 12.8125C96.3646 13.125 96.1797 13.5495 96.1797 14.0859Z" fill="#FF6F61"/>
<path d="M0 4C0 1.79086 1.79086 0 4 0H113C115.209 0 117 1.79086 117 4V26C117 28.2091 115.209 30 113 30H4C1.79086 30 0 28.2091 0 26V4Z" fill="#FF6F61"/>
<path d="M149.176 17.3336V15.1403C149.176 13.3077 149.68 11.9332 150.687 11.0169C151.713 10.0811 153.441 9.61323 155.87 9.61323C160.293 9.61323 162.505 11.4068 162.505 14.9941V15.7544C162.505 17.0801 162.288 18.0452 161.853 18.6495C161.439 19.2344 160.718 19.6926 159.691 20.024C160.856 20.3164 161.626 20.7941 162.001 21.4569C162.396 22.1003 162.594 23.0653 162.594 24.3521V25.5803C162.594 27.2764 162.1 28.5924 161.113 29.5282C160.145 30.4445 158.457 30.9027 156.048 30.9027C153.54 30.9027 151.773 30.4348 150.746 29.499C149.719 28.5632 149.206 26.9353 149.206 24.6153V23.0653H154.3V25.3464C154.3 26.7111 154.912 27.3934 156.137 27.3934C157.341 27.3934 157.943 26.7306 157.943 25.4048V24.1766C157.943 23.4553 157.825 22.9191 157.588 22.5682C157.371 22.1978 156.956 22.0126 156.344 22.0126H152.345V18.3863H156.255C156.749 18.3863 157.075 18.2206 157.233 17.8892C157.391 17.5383 157.47 16.9534 157.47 16.1346V14.9941C157.47 14.4092 157.351 13.9705 157.114 13.6781C156.897 13.3662 156.492 13.2102 155.9 13.2102C155.268 13.2102 154.814 13.3369 154.537 13.5904C154.28 13.8438 154.152 14.2825 154.152 14.9063V17.3336H149.176Z" fill="#323232"/>
<path d="M179.048 30.6395H170.044V34.7336H165.542V26.984C167.319 26.984 168.208 25.707 168.208 23.1531V9.9934H181.033V26.984H183.551V34.7336H179.048V30.6395ZM173.243 23.1531C173.243 25.0247 172.927 26.3017 172.295 26.984H175.968V13.6489H173.243V23.1531Z" fill="#323232"/>
<path d="M200.106 16.0176V24.1766C200.106 24.9174 200.076 25.5413 200.017 26.0482C199.978 26.5356 199.83 27.1205 199.573 27.8028C199.336 28.4657 198.99 29.0018 198.536 29.4112C198.102 29.8206 197.45 30.1716 196.581 30.464C195.713 30.7564 194.666 30.9027 193.442 30.9027C191.112 30.9027 189.374 30.425 188.229 29.4697C187.083 28.5144 186.511 26.8963 186.511 24.6153V15.6959C186.511 13.5514 187.073 12.0015 188.199 11.0462C189.344 10.0714 191.052 9.58398 193.323 9.58398C195.713 9.58398 197.44 10.1006 198.507 11.1339C199.573 12.1477 200.106 13.7756 200.106 16.0176ZM191.576 14.9356V25.5218C191.576 25.8337 191.585 26.0677 191.605 26.2237C191.625 26.3601 191.684 26.5259 191.783 26.7208C191.882 26.9158 192.059 27.062 192.316 27.1595C192.573 27.2375 192.908 27.2764 193.323 27.2764C193.975 27.2764 194.429 27.14 194.686 26.867C194.942 26.5941 195.071 26.1457 195.071 25.5218V14.9648C195.071 14.302 194.933 13.8536 194.656 13.6196C194.399 13.3857 193.925 13.2687 193.234 13.2687C192.622 13.2687 192.188 13.3954 191.931 13.6489C191.694 13.8828 191.576 14.3117 191.576 14.9356Z" fill="#323232"/>
<path d="M204.342 9.9934H213.346C215.024 9.9934 216.16 10.3638 216.752 11.1047C217.364 11.8455 217.67 12.8593 217.67 14.146V19.059C217.67 20.5406 217.285 21.5837 216.515 22.188C215.765 22.7924 214.718 23.0946 213.376 23.0946H209.377V30.6395H204.342V9.9934ZM209.377 13.5026V19.4684H211.273C211.786 19.4684 212.171 19.3709 212.428 19.1759C212.684 18.981 212.833 18.7763 212.872 18.5618C212.912 18.3279 212.931 17.9769 212.931 17.509V14.8771C212.931 14.3312 212.793 13.9705 212.517 13.7951C212.24 13.6001 211.816 13.5026 211.243 13.5026H209.377Z" fill="#323232"/>
<path d="M234.568 16.0176V24.1766C234.568 24.9174 234.538 25.5413 234.479 26.0482C234.44 26.5356 234.292 27.1205 234.035 27.8028C233.798 28.4657 233.452 29.0018 232.998 29.4112C232.564 29.8206 231.912 30.1716 231.043 30.464C230.174 30.7564 229.128 30.9027 227.904 30.9027C225.574 30.9027 223.836 30.425 222.691 29.4697C221.545 28.5144 220.973 26.8963 220.973 24.6153V15.6959C220.973 13.5514 221.535 12.0015 222.661 11.0462C223.806 10.0714 225.514 9.58398 227.785 9.58398C230.174 9.58398 231.902 10.1006 232.969 11.1339C234.035 12.1477 234.568 13.7756 234.568 16.0176ZM226.038 14.9356V25.5218C226.038 25.8337 226.047 26.0677 226.067 26.2237C226.087 26.3601 226.146 26.5259 226.245 26.7208C226.344 26.9158 226.521 27.062 226.778 27.1595C227.035 27.2375 227.37 27.2764 227.785 27.2764C228.437 27.2764 228.891 27.14 229.148 26.867C229.404 26.5941 229.533 26.1457 229.533 25.5218V14.9648C229.533 14.302 229.395 13.8536 229.118 13.6196C228.861 13.3857 228.387 13.2687 227.696 13.2687C227.084 13.2687 226.65 13.3954 226.393 13.6489C226.156 13.8828 226.038 14.3117 226.038 14.9356Z" fill="#323232"/>
<path d="M238.833 9.9934H246.297C247.976 9.9934 249.259 10.3443 250.148 11.0462C251.056 11.748 251.51 12.7423 251.51 14.029V15.4327C251.51 16.7584 251.293 17.7235 250.859 18.3279C250.444 18.9127 249.723 19.3709 248.697 19.7023C249.881 19.9948 250.691 20.4724 251.125 21.1353C251.56 21.7981 251.777 22.7729 251.777 24.0596V24.9954C251.777 26.2237 251.649 27.2375 251.392 28.0368C251.135 28.8166 250.74 29.3917 250.207 29.7622C249.694 30.1131 249.161 30.347 248.608 30.464C248.075 30.581 247.403 30.6395 246.594 30.6395H238.833V9.9934ZM243.572 13.6489V18.0647H245.646C246.238 18.0647 246.613 17.899 246.771 17.5675C246.949 17.2361 247.038 16.6512 247.038 15.8129C247.038 14.9746 246.929 14.4092 246.712 14.1168C246.515 13.8048 246.11 13.6489 245.498 13.6489H243.572ZM243.572 21.6909V26.9255H245.527C246.218 26.9255 246.653 26.7501 246.83 26.3991C247.028 26.0482 247.127 25.3853 247.127 24.4106C247.127 23.3383 247.038 22.6169 246.86 22.2465C246.682 21.8761 246.238 21.6909 245.527 21.6909H243.572Z" fill="#323232"/>
<path d="M255.76 9.9934H260.796V17.5383H264.765C266.443 17.5383 267.579 17.9087 268.171 18.6495C268.783 19.3904 269.089 20.4042 269.089 21.6909V26.6038C269.089 28.0855 268.704 29.1285 267.934 29.7329C267.184 30.3373 266.137 30.6395 264.794 30.6395H255.76V9.9934ZM260.796 21.0475V27.0132H262.691C263.205 27.0132 263.59 26.9158 263.847 26.7208C264.103 26.5259 264.251 26.3211 264.291 26.1067C264.33 25.8727 264.35 25.5218 264.35 25.0539V22.422C264.35 21.8761 264.212 21.5154 263.935 21.34C263.659 21.145 263.234 21.0475 262.662 21.0475H260.796Z" fill="#323232"/>
<path d="M283.528 30.6395H272.717V9.9934H283.528V13.6196H277.782V18.3863H283.202V22.0126H277.782V26.984H283.528V30.6395Z" fill="#323232"/>
<path d="M312.135 13.7957H307.978V31.1567H302.878V13.7957H298.75V10.1329H312.135V13.7957Z" fill="#323232"/>
<path d="M315.422 10.1329H324.385C326.055 10.1329 327.185 10.5101 327.775 11.2645C328.384 12.0189 328.689 13.0512 328.689 14.3615V19.3643C328.689 20.8731 328.306 21.9352 327.539 22.5506C326.792 23.1661 325.751 23.4738 324.414 23.4738H320.434V31.1567H315.422V10.1329ZM320.434 13.7064V19.7812H322.321C322.832 19.7812 323.215 19.682 323.471 19.4834C323.726 19.2849 323.874 19.0765 323.913 18.8581C323.952 18.6198 323.972 18.2625 323.972 17.786V15.106C323.972 14.5501 323.834 14.1828 323.559 14.0041C323.284 13.8056 322.861 13.7064 322.291 13.7064H320.434Z" fill="#323232"/>
<path d="M343.06 31.1567H332.3V10.1329H343.06V13.8255H337.341V18.6794H342.736V22.372H337.341V27.4343H343.06V31.1567Z" fill="#323232"/>
<path d="M360.204 31.1567H355.163V22.3422H351.655V31.1567H346.643V10.1329H351.655V18.6198H355.163V10.1329H360.204V31.1567Z" fill="#323232"/>
<path d="M378.528 31.1567H373.486V20.1088L369.683 29.37V31.1567H364.671V10.1329H369.683V21.1808L373.486 11.9196V10.1329H378.528V31.1567Z" fill="#323232"/>
<path d="M382.987 10.1329H391.949C393.62 10.1329 394.75 10.5101 395.34 11.2645C395.949 12.0189 396.254 13.0512 396.254 14.3615V19.3643C396.254 20.8731 395.87 21.9352 395.104 22.5506C394.357 23.1661 393.315 23.4738 391.979 23.4738H387.999V31.1567H382.987V10.1329ZM387.999 13.7064V19.7812H389.886C390.397 19.7812 390.78 19.682 391.035 19.4834C391.291 19.2849 391.438 19.0765 391.478 18.8581C391.517 18.6198 391.537 18.2625 391.537 17.786V15.106C391.537 14.5501 391.399 14.1828 391.124 14.0041C390.849 13.8056 390.426 13.7064 389.856 13.7064H387.999Z" fill="#323232"/>
<path d="M408.362 10.1329H413.197L408.48 25.2903C408.165 26.3028 407.9 27.1068 407.684 27.7024C407.487 28.2781 407.242 28.8141 406.947 29.3104C406.672 29.7869 406.426 30.1343 406.21 30.3527C405.994 30.5512 405.66 30.7299 405.208 30.8887C404.775 31.0276 404.353 31.107 403.94 31.1269C403.547 31.1468 402.967 31.1567 402.2 31.1567H401.287V27.4343H402.495C402.888 27.4343 403.203 27.3549 403.439 27.1961C403.694 27.0174 403.851 26.8487 403.91 26.6899C403.989 26.5112 404.087 26.2233 404.205 25.8263L398.191 10.1329H403.291L406.239 19.8408L408.362 10.1329Z" fill="#323232"/>
<path d="M430.194 31.1567H425.153V20.1088L421.35 29.37V31.1567H416.338V10.1329H421.35V21.1808L425.153 11.9196V10.1329H430.194V31.1567ZM423.266 6.41057C423.777 6.41057 424.151 6.30138 424.387 6.08301C424.642 5.86463 424.77 5.48743 424.77 4.95142H427.865C427.865 6.32124 427.521 7.33371 426.834 7.98884C426.146 8.62412 424.957 8.94176 423.266 8.94176C421.596 8.94176 420.416 8.62412 419.729 7.98884C419.041 7.33371 418.697 6.32124 418.697 4.95142H421.792C421.792 5.92419 422.284 6.41057 423.266 6.41057Z" fill="#323232"/>
<path d="M447.743 23.1462V25.0223C447.743 27.4046 447.252 29.0722 446.269 30.0251C445.287 30.9582 443.459 31.4247 440.786 31.4247C438.368 31.4247 436.688 30.9879 435.745 30.1144C434.821 29.2409 434.359 27.9505 434.359 26.2432V15.2251C434.359 11.5722 436.56 9.74579 440.963 9.74579C443.38 9.74579 445.09 10.2222 446.093 11.1752C447.115 12.1082 447.626 13.5078 447.626 15.374V17.9052H442.673V15.1357C442.673 14.5005 442.535 14.0538 442.26 13.7957C442.004 13.5376 441.562 13.4086 440.933 13.4086C440.324 13.4086 439.911 13.5674 439.695 13.885C439.479 14.2027 439.371 14.6791 439.371 15.3144V25.7667C439.371 26.5211 439.469 27.0571 439.666 27.3748C439.882 27.6924 440.344 27.8512 441.051 27.8512C441.7 27.8512 442.132 27.6924 442.348 27.3748C442.565 27.0571 442.673 26.5211 442.673 25.7667V23.1462H447.743Z" fill="#323232"/>
<path d="M458.666 22.1933C457.998 22.1933 457.545 22.3223 457.31 22.5804C457.093 22.8186 456.985 23.3944 456.985 24.3076V27.077C456.985 29.7968 455.6 31.1567 452.829 31.1567H450.794V27.5237C451.286 27.5237 451.6 27.4046 451.738 27.1663C451.875 26.9281 451.944 26.3822 451.944 25.5285V24.784C451.944 23.7319 452.111 22.9775 452.445 22.5209C452.779 22.0444 453.369 21.697 454.214 21.4786C453.251 21.0021 452.593 20.3867 452.239 19.6323C451.885 18.8581 451.708 17.6669 451.708 16.0589C451.708 13.7957 452.072 12.2472 452.799 11.4134C453.546 10.5597 454.981 10.1329 457.103 10.1329H464.208V31.1567H459.491V22.1933H458.666ZM459.491 18.5901V13.7659H457.958C457.369 13.7659 456.926 13.8751 456.632 14.0935C456.337 14.292 456.189 14.6692 456.189 15.2251V16.4162C456.189 17.25 456.307 17.8257 456.543 18.1434C456.799 18.4412 457.26 18.5901 457.929 18.5901H459.491Z" fill="#323232"/>
<path d="M495.741 9.58398V30.7626H490.726V13.3337H488.027V24.583C488.027 26.0029 487.949 27.1228 487.793 27.9428C487.636 28.7627 487.324 29.3827 486.854 29.8027C486.405 30.2226 485.896 30.4926 485.329 30.6126C484.762 30.7126 483.931 30.7626 482.836 30.7626H480.753V27.0129H481.516C482.161 27.0129 482.572 26.8529 482.748 26.5329C482.943 26.2129 483.041 25.5629 483.041 24.583V9.58398H495.741Z" fill="#323232"/>
<path d="M510.913 30.7626H500.208V9.58398H510.913V13.3037H505.223V18.1934H510.591V21.9132H505.223V27.0129H510.913V30.7626Z" fill="#323232"/>
<path d="M527.97 30.7626H522.954V21.8832H519.464V30.7626H514.478V9.58398H519.464V18.1334H522.954V9.58398H527.97V30.7626Z" fill="#323232"/>
<path d="M532.414 9.58398H537.4V17.3235H541.331C542.993 17.3235 544.117 17.7035 544.704 18.4634C545.31 19.2234 545.613 20.2633 545.613 21.5832V26.6229C545.613 28.1428 545.232 29.2127 544.469 29.8327C543.726 30.4526 542.69 30.7626 541.36 30.7626H532.414V9.58398ZM537.4 20.9232V27.0428H539.278C539.786 27.0428 540.167 26.9429 540.421 26.7429C540.676 26.5429 540.822 26.3329 540.861 26.1129C540.9 25.8729 540.92 25.5129 540.92 25.033V22.3332C540.92 21.7732 540.783 21.4032 540.509 21.2232C540.236 21.0232 539.815 20.9232 539.248 20.9232H537.4Z" fill="#323232"/>
<path d="M562.158 10.0034H567.178V18.5419H568.773C569.324 18.5419 569.698 18.432 569.895 18.2123C570.111 17.9726 570.22 17.4034 570.22 16.5046V14.2277C570.22 11.4115 571.509 10.0034 574.088 10.0034H576.244V13.6884C575.87 13.6884 575.614 13.8183 575.476 14.0779C575.338 14.3376 575.269 14.767 575.269 15.3662V17.1637C575.269 18.1424 575.122 18.8514 574.826 19.2909C574.531 19.7103 574.029 20.0598 573.32 20.3394C574.167 20.5591 574.748 20.9087 575.063 21.388C575.397 21.8474 575.565 22.6064 575.565 23.6649V25.4925C575.565 26.3513 575.634 26.9006 575.771 27.1402C575.909 27.3799 576.224 27.4997 576.716 27.4997V31.1548H574.679C571.903 31.1548 570.515 29.7866 570.515 27.0504V24.4139C570.515 23.4752 570.397 22.886 570.161 22.6463C569.924 22.4066 569.462 22.2868 568.773 22.2868H567.178V31.1548H562.158V10.0034Z" fill="#323232"/>
<path d="M580.446 10.0034H589.424C591.097 10.0034 592.229 10.3829 592.82 11.1419C593.43 11.9008 593.735 12.9394 593.735 14.2577V19.2909C593.735 20.8088 593.351 21.8774 592.583 22.4965C591.835 23.1157 590.792 23.4253 589.453 23.4253H585.467V31.1548H580.446V10.0034ZM585.467 13.5986V19.7103H587.356C587.868 19.7103 588.252 19.6104 588.508 19.4107C588.764 19.211 588.912 19.0012 588.951 18.7815C588.99 18.5419 589.01 18.1824 589.01 17.703V15.0066C589.01 14.4474 588.872 14.0779 588.597 13.8981C588.321 13.6984 587.898 13.5986 587.327 13.5986H585.467Z" fill="#323232"/>
<path d="M610.249 31.1548H605.317L604.608 26.3313H600.74L600.002 31.1548H595.07L599.293 10.0034H606.026L610.249 31.1548ZM604.106 22.7661L602.719 13.3589L601.301 22.7661H604.106Z" fill="#323232"/>
<path d="M626.416 23.0957V24.9832C626.416 27.3799 625.924 29.0576 624.94 30.0163C623.955 30.9551 622.124 31.4244 619.447 31.4244C617.026 31.4244 615.342 30.985 614.397 30.1062C613.472 29.2274 613.009 27.9292 613.009 26.2115V15.1265C613.009 11.4515 615.214 9.61394 619.624 9.61394C622.046 9.61394 623.758 10.0933 624.763 11.052C625.786 11.9907 626.298 13.3988 626.298 15.2763V17.8228H621.337V15.0366C621.337 14.3975 621.199 13.9481 620.924 13.6884C620.668 13.4288 620.225 13.299 619.595 13.299C618.984 13.299 618.571 13.4587 618.354 13.7783C618.138 14.0979 618.03 14.5772 618.03 15.2164V25.7321C618.03 26.4911 618.128 27.0304 618.325 27.3499C618.541 27.6695 619.004 27.8293 619.713 27.8293C620.362 27.8293 620.796 27.6695 621.012 27.3499C621.229 27.0304 621.337 26.4911 621.337 25.7321V23.0957H626.416Z" fill="#323232"/>
<path d="M643.44 16.1751V24.5338C643.44 25.2927 643.411 25.9319 643.351 26.4512C643.312 26.9505 643.164 27.5497 642.909 28.2487C642.672 28.9278 642.328 29.4771 641.875 29.8965C641.442 30.3159 640.792 30.6754 639.926 30.975C639.06 31.2746 638.016 31.4244 636.796 31.4244C634.473 31.4244 632.74 30.9351 631.598 29.9564C630.457 28.9777 629.886 27.32 629.886 24.9832V15.8455C629.886 13.6485 630.447 12.0606 631.569 11.082C632.711 10.0833 634.414 9.58398 636.678 9.58398C639.06 9.58398 640.782 10.1133 641.845 11.1718C642.909 12.2104 643.44 13.8782 643.44 16.1751ZM634.935 15.0666V25.9119C634.935 26.2315 634.945 26.4711 634.965 26.6309C634.985 26.7707 635.044 26.9405 635.142 27.1402C635.24 27.34 635.418 27.4898 635.674 27.5896C635.929 27.6695 636.264 27.7095 636.678 27.7095C637.327 27.7095 637.78 27.5697 638.036 27.29C638.292 27.0104 638.42 26.551 638.42 25.9119V15.0965C638.42 14.4174 638.282 13.9581 638.006 13.7184C637.751 13.4787 637.278 13.3589 636.589 13.3589C635.979 13.3589 635.546 13.4887 635.29 13.7483C635.053 13.988 634.935 14.4274 634.935 15.0666Z" fill="#323232"/>
<path d="M659.544 13.6884H655.381V31.1548H650.272V13.6884H646.137V10.0034H659.544V13.6884Z" fill="#323232"/>
<path d="M675.331 31.1548H670.399L669.691 26.3313H665.822L665.084 31.1548H660.152L664.375 10.0034H671.108L675.331 31.1548ZM669.189 22.7661L667.801 13.3589L666.383 22.7661H669.189Z" fill="#323232"/>
<path opacity="0.8" fill-rule="evenodd" clip-rule="evenodd" d="M474.813 29.7121L477.492 29.5014L477.492 29.5012L547.755 23.9742L547.755 23.9743L550.434 23.7636L549.439 22.2555L550.192 20.6873L549.194 19.1407L549.947 17.5725L548.955 16.1028L549.711 14.573L548.716 13.0649L549.466 11.4582L547.406 11.6202L547.406 11.6201L476.523 17.1958L476.523 17.1961L473.845 17.4067L474.837 18.8764L474.09 20.5216L475.075 21.9143L474.326 23.521L475.314 24.9522L474.571 26.6358L475.559 28.067L474.813 29.7121Z" fill="white"/>
<path d="M1033.84 17.3336V15.1403C1033.84 13.3077 1034.35 11.9332 1035.36 11.0169C1036.38 10.0811 1038.11 9.61323 1040.54 9.61323C1044.96 9.61323 1047.17 11.4068 1047.17 14.9941V15.7544C1047.17 17.0801 1046.96 18.0452 1046.52 18.6495C1046.11 19.2344 1045.39 19.6926 1044.36 20.024C1045.53 20.3164 1046.3 20.7941 1046.67 21.4569C1047.07 22.1003 1047.26 23.0653 1047.26 24.3521V25.5803C1047.26 27.2764 1046.77 28.5924 1045.78 29.5282C1044.81 30.4445 1043.13 30.9027 1040.72 30.9027C1038.21 30.9027 1036.44 30.4348 1035.41 29.499C1034.39 28.5632 1033.87 26.9353 1033.87 24.6153V23.0653H1038.97V25.3464C1038.97 26.7111 1039.58 27.3934 1040.81 27.3934C1042.01 27.3934 1042.61 26.7306 1042.61 25.4048V24.1766C1042.61 23.4553 1042.49 22.9191 1042.26 22.5682C1042.04 22.1978 1041.63 22.0126 1041.01 22.0126H1037.01V18.3863H1040.92C1041.42 18.3863 1041.74 18.2206 1041.9 17.8892C1042.06 17.5383 1042.14 16.9534 1042.14 16.1346V14.9941C1042.14 14.4092 1042.02 13.9705 1041.78 13.6781C1041.57 13.3662 1041.16 13.2102 1040.57 13.2102C1039.94 13.2102 1039.48 13.3369 1039.21 13.5904C1038.95 13.8438 1038.82 14.2825 1038.82 14.9063V17.3336H1033.84Z" fill="#323232"/>
<path d="M1063.72 30.6395H1054.71V34.7336H1050.21V26.984C1051.99 26.984 1052.88 25.707 1052.88 23.1531V9.9934H1065.7V26.984H1068.22V34.7336H1063.72V30.6395ZM1057.91 23.1531C1057.91 25.0247 1057.6 26.3017 1056.96 26.984H1060.64V13.6489H1057.91V23.1531Z" fill="#323232"/>
<path d="M1084.78 16.0176V24.1766C1084.78 24.9174 1084.75 25.5413 1084.69 26.0482C1084.65 26.5356 1084.5 27.1205 1084.24 27.8028C1084 28.4657 1083.66 29.0018 1083.21 29.4112C1082.77 29.8206 1082.12 30.1716 1081.25 30.464C1080.38 30.7564 1079.33 30.9027 1078.11 30.9027C1075.78 30.9027 1074.04 30.425 1072.9 29.4697C1071.75 28.5144 1071.18 26.8963 1071.18 24.6153V15.6959C1071.18 13.5514 1071.74 12.0015 1072.87 11.0462C1074.01 10.0714 1075.72 9.58398 1077.99 9.58398C1080.38 9.58398 1082.11 10.1006 1083.18 11.1339C1084.24 12.1477 1084.78 13.7756 1084.78 16.0176ZM1076.24 14.9356V25.5218C1076.24 25.8337 1076.25 26.0677 1076.27 26.2237C1076.29 26.3601 1076.35 26.5259 1076.45 26.7208C1076.55 26.9158 1076.73 27.062 1076.99 27.1595C1077.24 27.2375 1077.58 27.2764 1077.99 27.2764C1078.64 27.2764 1079.1 27.14 1079.35 26.867C1079.61 26.5941 1079.74 26.1457 1079.74 25.5218V14.9648C1079.74 14.302 1079.6 13.8536 1079.33 13.6196C1079.07 13.3857 1078.59 13.2687 1077.9 13.2687C1077.29 13.2687 1076.86 13.3954 1076.6 13.6489C1076.36 13.8828 1076.24 14.3117 1076.24 14.9356Z" fill="#323232"/>
<path d="M1089.01 9.9934H1098.01C1099.69 9.9934 1100.83 10.3638 1101.42 11.1047C1102.03 11.8455 1102.34 12.8593 1102.34 14.146V19.059C1102.34 20.5406 1101.95 21.5837 1101.18 22.188C1100.43 22.7924 1099.39 23.0946 1098.04 23.0946H1094.05V30.6395H1089.01V9.9934ZM1094.05 13.5026V19.4684H1095.94C1096.45 19.4684 1096.84 19.3709 1097.1 19.1759C1097.35 18.981 1097.5 18.7763 1097.54 18.5618C1097.58 18.3279 1097.6 17.9769 1097.6 17.509V14.8771C1097.6 14.3312 1097.46 13.9705 1097.19 13.7951C1096.91 13.6001 1096.48 13.5026 1095.91 13.5026H1094.05Z" fill="#323232"/>
<path d="M1119.24 16.0176V24.1766C1119.24 24.9174 1119.21 25.5413 1119.15 26.0482C1119.11 26.5356 1118.96 27.1205 1118.7 27.8028C1118.47 28.4657 1118.12 29.0018 1117.67 29.4112C1117.23 29.8206 1116.58 30.1716 1115.71 30.464C1114.84 30.7564 1113.8 30.9027 1112.57 30.9027C1110.24 30.9027 1108.5 30.425 1107.36 29.4697C1106.21 28.5144 1105.64 26.8963 1105.64 24.6153V15.6959C1105.64 13.5514 1106.2 12.0015 1107.33 11.0462C1108.48 10.0714 1110.18 9.58398 1112.45 9.58398C1114.84 9.58398 1116.57 10.1006 1117.64 11.1339C1118.7 12.1477 1119.24 13.7756 1119.24 16.0176ZM1110.71 14.9356V25.5218C1110.71 25.8337 1110.72 26.0677 1110.74 26.2237C1110.76 26.3601 1110.82 26.5259 1110.91 26.7208C1111.01 26.9158 1111.19 27.062 1111.45 27.1595C1111.7 27.2375 1112.04 27.2764 1112.45 27.2764C1113.11 27.2764 1113.56 27.14 1113.82 26.867C1114.07 26.5941 1114.2 26.1457 1114.2 25.5218V14.9648C1114.2 14.302 1114.06 13.8536 1113.79 13.6196C1113.53 13.3857 1113.06 13.2687 1112.37 13.2687C1111.75 13.2687 1111.32 13.3954 1111.06 13.6489C1110.83 13.8828 1110.71 14.3117 1110.71 14.9356Z" fill="#323232"/>
<path d="M1123.5 9.9934H1130.97C1132.64 9.9934 1133.93 10.3443 1134.82 11.0462C1135.73 11.748 1136.18 12.7423 1136.18 14.029V15.4327C1136.18 16.7584 1135.96 17.7235 1135.53 18.3279C1135.11 18.9127 1134.39 19.3709 1133.37 19.7023C1134.55 19.9948 1135.36 20.4724 1135.79 21.1353C1136.23 21.7981 1136.45 22.7729 1136.45 24.0596V24.9954C1136.45 26.2237 1136.32 27.2375 1136.06 28.0368C1135.8 28.8166 1135.41 29.3917 1134.88 29.7622C1134.36 30.1131 1133.83 30.347 1133.28 30.464C1132.74 30.581 1132.07 30.6395 1131.26 30.6395H1123.5V9.9934ZM1128.24 13.6489V18.0647H1130.31C1130.91 18.0647 1131.28 17.899 1131.44 17.5675C1131.62 17.2361 1131.71 16.6512 1131.71 15.8129C1131.71 14.9746 1131.6 14.4092 1131.38 14.1168C1131.18 13.8048 1130.78 13.6489 1130.17 13.6489H1128.24ZM1128.24 21.6909V26.9255H1130.2C1130.89 26.9255 1131.32 26.7501 1131.5 26.3991C1131.7 26.0482 1131.8 25.3853 1131.8 24.4106C1131.8 23.3383 1131.71 22.6169 1131.53 22.2465C1131.35 21.8761 1130.91 21.6909 1130.2 21.6909H1128.24Z" fill="#323232"/>
<path d="M1140.43 9.9934H1145.46V17.5383H1149.43C1151.11 17.5383 1152.25 17.9087 1152.84 18.6495C1153.45 19.3904 1153.76 20.4042 1153.76 21.6909V26.6038C1153.76 28.0855 1153.37 29.1285 1152.6 29.7329C1151.85 30.3373 1150.81 30.6395 1149.46 30.6395H1140.43V9.9934ZM1145.46 21.0475V27.0132H1147.36C1147.87 27.0132 1148.26 26.9158 1148.52 26.7208C1148.77 26.5259 1148.92 26.3211 1148.96 26.1067C1149 25.8727 1149.02 25.5218 1149.02 25.0539V22.422C1149.02 21.8761 1148.88 21.5154 1148.6 21.34C1148.33 21.145 1147.9 21.0475 1147.33 21.0475H1145.46Z" fill="#323232"/>
<path d="M1168.2 30.6395H1157.39V9.9934H1168.2V13.6196H1162.45V18.3863H1167.87V22.0126H1162.45V26.984H1168.2V30.6395Z" fill="#323232"/>
<path d="M1196.8 13.7957H1192.65V31.1567H1187.55V13.7957H1183.42V10.1329H1196.8V13.7957Z" fill="#323232"/>
<path d="M1200.09 10.1329H1209.05C1210.72 10.1329 1211.85 10.5101 1212.44 11.2645C1213.05 12.0189 1213.36 13.0512 1213.36 14.3615V19.3643C1213.36 20.8731 1212.97 21.9352 1212.21 22.5506C1211.46 23.1661 1210.42 23.4738 1209.08 23.4738H1205.1V31.1567H1200.09V10.1329ZM1205.1 13.7064V19.7812H1206.99C1207.5 19.7812 1207.88 19.682 1208.14 19.4834C1208.4 19.2849 1208.54 19.0765 1208.58 18.8581C1208.62 18.6198 1208.64 18.2625 1208.64 17.786V15.106C1208.64 14.5501 1208.5 14.1828 1208.23 14.0041C1207.95 13.8056 1207.53 13.7064 1206.96 13.7064H1205.1Z" fill="#323232"/>
<path d="M1227.73 31.1567H1216.97V10.1329H1227.73V13.8255H1222.01V18.6794H1227.41V22.372H1222.01V27.4343H1227.73V31.1567Z" fill="#323232"/>
<path d="M1244.87 31.1567H1239.83V22.3422H1236.32V31.1567H1231.31V10.1329H1236.32V18.6198H1239.83V10.1329H1244.87V31.1567Z" fill="#323232"/>
<path d="M1263.2 31.1567H1258.16V20.1088L1254.35 29.37V31.1567H1249.34V10.1329H1254.35V21.1808L1258.16 11.9196V10.1329H1263.2V31.1567Z" fill="#323232"/>
<path d="M1267.66 10.1329H1276.62C1278.29 10.1329 1279.42 10.5101 1280.01 11.2645C1280.62 12.0189 1280.92 13.0512 1280.92 14.3615V19.3643C1280.92 20.8731 1280.54 21.9352 1279.77 22.5506C1279.03 23.1661 1277.98 23.4738 1276.65 23.4738H1272.67V31.1567H1267.66V10.1329ZM1272.67 13.7064V19.7812H1274.55C1275.07 19.7812 1275.45 19.682 1275.7 19.4834C1275.96 19.2849 1276.11 19.0765 1276.15 18.8581C1276.19 18.6198 1276.21 18.2625 1276.21 17.786V15.106C1276.21 14.5501 1276.07 14.1828 1275.79 14.0041C1275.52 13.8056 1275.1 13.7064 1274.53 13.7064H1272.67Z" fill="#323232"/>
<path d="M1293.03 10.1329H1297.87L1293.15 25.2903C1292.83 26.3028 1292.57 27.1068 1292.35 27.7024C1292.16 28.2781 1291.91 28.8141 1291.62 29.3104C1291.34 29.7869 1291.1 30.1343 1290.88 30.3527C1290.66 30.5512 1290.33 30.7299 1289.88 30.8887C1289.44 31.0276 1289.02 31.107 1288.61 31.1269C1288.22 31.1468 1287.64 31.1567 1286.87 31.1567H1285.96V27.4343H1287.16C1287.56 27.4343 1287.87 27.3549 1288.11 27.1961C1288.36 27.0174 1288.52 26.8487 1288.58 26.6899C1288.66 26.5112 1288.76 26.2233 1288.87 25.8263L1282.86 10.1329H1287.96L1290.91 19.8408L1293.03 10.1329Z" fill="#323232"/>
<path d="M1314.86 31.1567H1309.82V20.1088L1306.02 29.37V31.1567H1301.01V10.1329H1306.02V21.1808L1309.82 11.9196V10.1329H1314.86V31.1567ZM1307.94 6.41057C1308.45 6.41057 1308.82 6.30138 1309.06 6.08301C1309.31 5.86463 1309.44 5.48743 1309.44 4.95142H1312.53C1312.53 6.32124 1312.19 7.33371 1311.5 7.98884C1310.81 8.62412 1309.63 8.94176 1307.94 8.94176C1306.26 8.94176 1305.09 8.62412 1304.4 7.98884C1303.71 7.33371 1303.37 6.32124 1303.37 4.95142H1306.46C1306.46 5.92419 1306.95 6.41057 1307.94 6.41057Z" fill="#323232"/>
<path d="M1332.41 23.1462V25.0223C1332.41 27.4046 1331.92 29.0722 1330.94 30.0251C1329.96 30.9582 1328.13 31.4247 1325.45 31.4247C1323.04 31.4247 1321.36 30.9879 1320.41 30.1144C1319.49 29.2409 1319.03 27.9505 1319.03 26.2432V15.2251C1319.03 11.5722 1321.23 9.74579 1325.63 9.74579C1328.05 9.74579 1329.76 10.2222 1330.76 11.1752C1331.78 12.1082 1332.29 13.5078 1332.29 15.374V17.9052H1327.34V15.1357C1327.34 14.5005 1327.2 14.0538 1326.93 13.7957C1326.67 13.5376 1326.23 13.4086 1325.6 13.4086C1324.99 13.4086 1324.58 13.5674 1324.36 13.885C1324.15 14.2027 1324.04 14.6791 1324.04 15.3144V25.7667C1324.04 26.5211 1324.14 27.0571 1324.33 27.3748C1324.55 27.6924 1325.01 27.8512 1325.72 27.8512C1326.37 27.8512 1326.8 27.6924 1327.02 27.3748C1327.23 27.0571 1327.34 26.5211 1327.34 25.7667V23.1462H1332.41Z" fill="#323232"/>
<path d="M1343.33 22.1933C1342.67 22.1933 1342.21 22.3223 1341.98 22.5804C1341.76 22.8186 1341.65 23.3944 1341.65 24.3076V27.077C1341.65 29.7968 1340.27 31.1567 1337.5 31.1567H1335.46V27.5237C1335.95 27.5237 1336.27 27.4046 1336.41 27.1663C1336.54 26.9281 1336.61 26.3822 1336.61 25.5285V24.784C1336.61 23.7319 1336.78 22.9775 1337.11 22.5209C1337.45 22.0444 1338.04 21.697 1338.88 21.4786C1337.92 21.0021 1337.26 20.3867 1336.91 19.6323C1336.55 18.8581 1336.38 17.6669 1336.38 16.0589C1336.38 13.7957 1336.74 12.2472 1337.47 11.4134C1338.21 10.5597 1339.65 10.1329 1341.77 10.1329H1348.88V31.1567H1344.16V22.1933H1343.33ZM1344.16 18.5901V13.7659H1342.63C1342.04 13.7659 1341.6 13.8751 1341.3 14.0935C1341.01 14.292 1340.86 14.6692 1340.86 15.2251V16.4162C1340.86 17.25 1340.98 17.8257 1341.21 18.1434C1341.47 18.4412 1341.93 18.5901 1342.6 18.5901H1344.16Z" fill="#323232"/>
<path d="M1380.41 9.58398V30.7626H1375.39V13.3337H1372.7V24.583C1372.7 26.0029 1372.62 27.1228 1372.46 27.9428C1372.31 28.7627 1371.99 29.3827 1371.52 29.8027C1371.07 30.2226 1370.57 30.4926 1370 30.6126C1369.43 30.7126 1368.6 30.7626 1367.5 30.7626H1365.42V27.0129H1366.18C1366.83 27.0129 1367.24 26.8529 1367.42 26.5329C1367.61 26.2129 1367.71 25.5629 1367.71 24.583V9.58398H1380.41Z" fill="#323232"/>
<path d="M1395.58 30.7626H1384.88V9.58398H1395.58V13.3037H1389.89V18.1934H1395.26V21.9132H1389.89V27.0129H1395.58V30.7626Z" fill="#323232"/>
<path d="M1412.64 30.7626H1407.62V21.8832H1404.13V30.7626H1399.15V9.58398H1404.13V18.1334H1407.62V9.58398H1412.64V30.7626Z" fill="#323232"/>
<path d="M1417.08 9.58398H1422.07V17.3235H1426C1427.66 17.3235 1428.79 17.7035 1429.37 18.4634C1429.98 19.2234 1430.28 20.2633 1430.28 21.5832V26.6229C1430.28 28.1428 1429.9 29.2127 1429.14 29.8327C1428.39 30.4526 1427.36 30.7626 1426.03 30.7626H1417.08V9.58398ZM1422.07 20.9232V27.0428H1423.95C1424.45 27.0428 1424.84 26.9429 1425.09 26.7429C1425.34 26.5429 1425.49 26.3329 1425.53 26.1129C1425.57 25.8729 1425.59 25.5129 1425.59 25.033V22.3332C1425.59 21.7732 1425.45 21.4032 1425.18 21.2232C1424.9 21.0232 1424.48 20.9232 1423.92 20.9232H1422.07Z" fill="#323232"/>
<path opacity="0.8" fill-rule="evenodd" clip-rule="evenodd" d="M1359.48 29.7121L1362.16 29.5014L1362.16 29.5012L1432.42 23.9742L1432.42 23.9743L1435.1 23.7636L1434.11 22.2555L1434.86 20.6873L1433.86 19.1407L1434.62 17.5725L1433.62 16.1028L1434.38 14.573L1433.39 13.0649L1434.13 11.4582L1432.08 11.6202L1432.08 11.6201L1361.19 17.1958L1361.19 17.1961L1358.51 17.4068L1359.51 18.8764L1358.76 20.5216L1359.74 21.9143L1358.99 23.521L1359.98 24.9522L1359.24 26.6358L1360.23 28.067L1359.48 29.7121Z" fill="white"/>
<path d="M702.892 13.629H695.609V17.7334H699.592C701.277 17.7334 702.417 18.1129 703.011 18.8719C703.626 19.6309 703.933 20.6695 703.933 21.9877V27.0209C703.933 28.5388 703.546 29.6074 702.773 30.2265C702.02 30.8457 700.97 31.1553 699.622 31.1553H690.555V10.0039H702.892V13.629ZM695.609 21.3286V27.4403H697.511C698.027 27.4403 698.413 27.3404 698.671 27.1407C698.928 26.941 699.077 26.7313 699.117 26.5116C699.156 26.2719 699.176 25.9124 699.176 25.433V22.7367C699.176 22.1774 699.037 21.8079 698.76 21.6282C698.482 21.4284 698.056 21.3286 697.482 21.3286H695.609Z" fill="#323232"/>
<path d="M721.241 16.1756V24.5342C721.241 25.2932 721.212 25.9324 721.152 26.4517C721.112 26.951 720.964 27.5502 720.706 28.2492C720.468 28.9283 720.121 29.4776 719.666 29.897C719.23 30.3164 718.576 30.6759 717.703 30.9755C716.831 31.2751 715.781 31.4249 714.552 31.4249C712.213 31.4249 710.469 30.9356 709.32 29.9569C708.17 28.9782 707.596 27.3205 707.596 24.9836V15.846C707.596 13.649 708.16 12.0611 709.29 11.0824C710.44 10.0838 712.154 9.58447 714.433 9.58447C716.831 9.58447 718.566 10.1138 719.636 11.1723C720.706 12.2109 721.241 13.8787 721.241 16.1756ZM712.679 15.0671V25.9124C712.679 26.2319 712.689 26.4716 712.709 26.6314C712.729 26.7712 712.788 26.941 712.887 27.1407C712.986 27.3404 713.165 27.4902 713.422 27.5901C713.68 27.67 714.017 27.7099 714.433 27.7099C715.087 27.7099 715.543 27.5701 715.801 27.2905C716.058 27.0109 716.187 26.5515 716.187 25.9124V15.097C716.187 14.4179 716.049 13.9586 715.771 13.7189C715.513 13.4792 715.038 13.3594 714.344 13.3594C713.73 13.3594 713.294 13.4892 713.036 13.7488C712.798 13.9885 712.679 14.4279 712.679 15.0671Z" fill="#323232"/>
<path d="M739.495 10.0039V31.1553H734.411V13.7488H731.676V24.9836C731.676 26.4017 731.597 27.5202 731.438 28.3391C731.28 29.158 730.962 29.7772 730.487 30.1966C730.031 30.616 729.516 30.8857 728.941 31.0055C728.366 31.1054 727.524 31.1553 726.414 31.1553H724.303V27.4104H725.076C725.73 27.4104 726.146 27.2506 726.325 26.931C726.523 26.6114 726.622 25.9623 726.622 24.9836V10.0039H739.495Z" fill="#323232"/>
<path d="M744.021 10.0039H749.075V17.7334H753.059C754.744 17.7334 755.883 18.1129 756.478 18.8719C757.092 19.6309 757.4 20.6695 757.4 21.9877V27.0209C757.4 28.5388 757.013 29.6074 756.24 30.2265C755.487 30.8457 754.437 31.1553 753.089 31.1553H744.021V10.0039ZM749.075 21.3286V27.4403H750.978C751.493 27.4403 751.88 27.3404 752.138 27.1407C752.395 26.941 752.544 26.7313 752.584 26.5116C752.623 26.2719 752.643 25.9124 752.643 25.433V22.7367C752.643 22.1774 752.504 21.8079 752.227 21.6282C751.949 21.4284 751.523 21.3286 750.948 21.3286H749.075Z" fill="#323232"/>
<path opacity="0.8" fill-rule="evenodd" clip-rule="evenodd" d="M764.421 27.1096L761.734 27.0847L761.734 27.0843L691.256 26.4302L691.371 14.0874L762.469 14.7472L762.469 14.7476L764.535 14.7668L763.648 16.3015L764.506 17.891L763.619 19.3487L764.478 20.8996L763.591 22.3958L764.449 24.0239L763.562 25.5201L764.421 27.1096ZM688.569 26.4054L691.256 26.4304L691.371 14.0875L688.684 14.0626L689.543 15.6135L688.655 17.1869L689.514 18.6607L688.627 20.1954L689.486 21.7078L688.598 23.3197L689.457 24.8321L688.569 26.4054Z" fill="white"/>
<path d="M867.204 10.1344V30.7877H862.293V13.7911H859.651V24.7613C859.651 26.146 859.574 27.2382 859.421 28.0378C859.268 28.8374 858.962 29.442 858.502 29.8515C858.062 30.2611 857.564 30.5244 857.009 30.6414C856.454 30.7389 855.64 30.7877 854.568 30.7877H852.529V27.1309H853.276C853.907 27.1309 854.309 26.9749 854.482 26.6629C854.673 26.3508 854.769 25.717 854.769 24.7613V10.1344H867.204Z" fill="#323232"/>
<path d="M885.074 30.7877H880.163V19.9344L876.459 29.0324V30.7877H871.577V10.1344H876.459V20.9876L880.163 11.8896V10.1344H885.074V30.7877Z" fill="#323232"/>
<path d="M909.233 30.7877H889.447V10.1344H894.357V27.1309H896.913V10.1344H901.795V27.1309H904.351V10.1344H909.233V30.7877Z" fill="#323232"/>
<path d="M926.809 30.7877H921.898V22.1285H918.481V30.7877H913.599V10.1344H918.481V18.4717H921.898V10.1344H926.809V30.7877Z" fill="#323232"/>
<path d="M944.658 30.7877H939.747V19.9344L936.043 29.0324V30.7877H931.16V10.1344H936.043V20.9876L939.747 11.8896V10.1344H944.658V30.7877Z" fill="#323232"/>
<path d="M962.528 30.7877H957.617V19.9344L953.913 29.0324V30.7877H949.031V10.1344H953.913V20.9876L957.617 11.8896V10.1344H962.528V30.7877ZM955.779 6.47763C956.277 6.47763 956.641 6.37037 956.871 6.15584C957.119 5.94131 957.244 5.57076 957.244 5.04419H960.259C960.259 6.38987 959.924 7.3845 959.254 8.02809C958.584 8.65217 957.426 8.96422 955.779 8.96422C954.152 8.96422 953.003 8.65217 952.333 8.02809C951.663 7.3845 951.328 6.38987 951.328 5.04419H954.343C954.343 5.99982 954.822 6.47763 955.779 6.47763Z" fill="#323232"/>
<path d="M976.133 10.1344H983.37C984.997 10.1344 986.242 10.4854 987.103 11.1875C987.984 11.8896 988.424 12.8842 988.424 14.1714V15.5756C988.424 16.9018 988.214 17.8672 987.793 18.4717C987.391 19.0568 986.692 19.5151 985.696 19.8467C986.845 20.1392 987.63 20.617 988.051 21.2801C988.472 21.9432 988.683 22.9183 988.683 24.2055V25.1416C988.683 26.3703 988.558 27.3844 988.31 28.1841C988.061 28.9642 987.678 29.5395 987.161 29.91C986.663 30.2611 986.146 30.4951 985.61 30.6121C985.093 30.7291 984.442 30.7877 983.657 30.7877H976.133V10.1344ZM980.728 13.7911V18.2085H982.738C983.313 18.2085 983.676 18.0427 983.829 17.7111C984.002 17.3796 984.088 16.7945 984.088 15.9559C984.088 15.1173 983.983 14.5517 983.772 14.2592C983.581 13.9471 983.188 13.7911 982.595 13.7911H980.728ZM980.728 21.836V27.0724H982.623C983.293 27.0724 983.715 26.8969 983.887 26.5458C984.078 26.1948 984.174 25.5317 984.174 24.5566C984.174 23.4839 984.088 22.7623 983.916 22.3918C983.743 22.0212 983.313 21.836 982.623 21.836H980.728Z" fill="#323232"/>
<path d="M1003.03 30.7877H992.545V10.1344H1003.03V13.7619H997.456V18.5303H1002.71V22.1577H997.456V27.1309H1003.03V30.7877Z" fill="#323232"/>
<path d="M1019.24 22.9183V24.7613C1019.24 27.1017 1018.76 28.7399 1017.8 29.676C1016.85 30.5926 1015.07 31.0509 1012.46 31.0509C1010.11 31.0509 1008.47 30.6219 1007.55 29.7638C1006.65 28.9057 1006.2 27.638 1006.2 25.9608V15.1368C1006.2 11.5483 1008.35 9.75407 1012.63 9.75407C1014.99 9.75407 1016.65 10.2221 1017.63 11.1583C1018.63 12.0749 1019.12 13.4498 1019.12 15.2831V17.7697H1014.3V15.049C1014.3 14.425 1014.17 13.9861 1013.9 13.7326C1013.65 13.4791 1013.22 13.3523 1012.61 13.3523C1012.01 13.3523 1011.61 13.5083 1011.4 13.8204C1011.19 14.1324 1011.08 14.6005 1011.08 15.2246V25.4927C1011.08 26.2338 1011.18 26.7604 1011.37 27.0724C1011.58 27.3844 1012.03 27.5405 1012.72 27.5405C1013.35 27.5405 1013.77 27.3844 1013.98 27.0724C1014.19 26.7604 1014.3 26.2338 1014.3 25.4927V22.9183H1019.24Z" fill="#323232"/>
<path opacity="0.8" fill-rule="evenodd" clip-rule="evenodd" d="M1023.69 24.0505L1017.47 24.2436L1017.47 24.243L854.464 29.3062L854.08 16.9688L1018.53 11.8608L1018.53 11.8614L1023.3 11.7131L1021.33 13.318L1023.4 14.836L1021.43 16.3638L1023.49 17.8433L1021.52 19.4096L1023.59 20.9662L1021.62 22.5325L1023.69 24.0505ZM848.244 29.4996L854.459 29.3066L854.075 16.9691L847.861 17.1621L849.928 18.6416L847.958 20.2851L850.023 21.6874L848.051 23.2923L850.118 24.7332L848.148 26.4152L850.215 27.8561L848.244 29.4996Z" fill="white"/>
<path d="M16.1486 22.9438V24.8342C16.1486 27.2347 15.6555 28.9151 14.6693 29.8753C13.6831 30.8155 11.8488 31.2856 9.16638 31.2856C6.74034 31.2856 5.05395 30.8455 4.10721 29.9653C3.18019 29.0851 2.71667 27.7848 2.71667 26.0645V14.9621C2.71667 11.2813 4.92575 9.44089 9.34389 9.44089C11.7699 9.44089 13.4859 9.921 14.4918 10.8812C15.5175 11.8214 16.0303 13.2317 16.0303 15.1121V17.6627H11.0599V14.8721C11.0599 14.2319 10.9218 13.7818 10.6457 13.5218C10.3893 13.2617 9.94547 13.1317 9.31431 13.1317C8.70287 13.1317 8.28867 13.2917 8.0717 13.6118C7.85474 13.9319 7.74626 14.412 7.74626 15.0521V25.5844C7.74626 26.3445 7.84488 26.8846 8.04212 27.2047C8.25908 27.5248 8.72259 27.6848 9.43265 27.6848C10.0835 27.6848 10.5175 27.5248 10.7344 27.2047C10.9514 26.8846 11.0599 26.3445 11.0599 25.5844V22.9438H16.1486Z" fill="#323232"/>
<path d="M33.8553 9.83098V31.0155H28.7961V13.5818H26.0742V24.8342C26.0742 26.2545 25.9953 27.3748 25.8375 28.1949C25.6797 29.0151 25.3641 29.6352 24.8908 30.0553C24.4371 30.4754 23.9243 30.7455 23.3523 30.8655C22.7803 30.9655 21.942 31.0155 20.8375 31.0155H18.7369V27.2647H19.5061C20.157 27.2647 20.5712 27.1047 20.7488 26.7846C20.946 26.4646 21.0446 25.8144 21.0446 24.8342V9.83098H33.8553Z" fill="#323232"/>
<path d="M52.1767 31.0155H47.2359L46.5258 26.1845H42.6501L41.9104 31.0155H36.9696L41.2004 9.83098H47.946L52.1767 31.0155ZM46.0229 22.6137L44.6323 13.1917L43.2122 22.6137H46.0229Z" fill="#323232"/>
<path d="M67.5165 13.4618H60.268V17.5726H64.2325C65.909 17.5726 67.0431 17.9527 67.6348 18.7129C68.2463 19.4731 68.552 20.5133 68.552 21.8336V26.8746C68.552 28.395 68.1674 29.4652 67.3981 30.0853C66.6486 30.7055 65.6033 31.0155 64.2621 31.0155H55.2384V9.83098H67.5165V13.4618ZM60.268 21.1734V27.2947H62.1615C62.6743 27.2947 63.0589 27.1947 63.3153 26.9947C63.5717 26.7946 63.7196 26.5846 63.7591 26.3645C63.7985 26.1245 63.8183 25.7644 63.8183 25.2843V22.5837C63.8183 22.0236 63.6802 21.6535 63.4041 21.4735C63.1279 21.2734 62.7039 21.1734 62.1319 21.1734H60.268Z" fill="#323232"/>
<path d="M85.7769 16.0123V24.3841C85.7769 25.1443 85.7473 25.7844 85.6882 26.3045C85.6487 26.8046 85.5008 27.4048 85.2444 28.1049C85.0077 28.7851 84.6625 29.3352 84.2089 29.7553C83.775 30.1754 83.1241 30.5354 82.2562 30.8355C81.3884 31.1356 80.343 31.2856 79.1201 31.2856C76.7927 31.2856 75.057 30.7955 73.913 29.8153C72.769 28.8351 72.1971 27.1747 72.1971 24.8342V15.6822C72.1971 13.4818 72.7592 11.8914 73.8834 10.9112C75.0274 9.911 76.7335 9.41089 79.0018 9.41089C81.3884 9.41089 83.1142 9.941 84.1793 11.0012C85.2444 12.0415 85.7769 13.7118 85.7769 16.0123ZM77.2562 14.9021V25.7644C77.2562 26.0845 77.2661 26.3245 77.2858 26.4846C77.3055 26.6246 77.3647 26.7946 77.4633 26.9947C77.5619 27.1947 77.7395 27.3447 77.9959 27.4448C78.2523 27.5248 78.5876 27.5648 79.0018 27.5648C79.6527 27.5648 80.1063 27.4248 80.3627 27.1447C80.6191 26.8646 80.7473 26.4045 80.7473 25.7644V14.9321C80.7473 14.2519 80.6093 13.7918 80.3331 13.5518C80.0767 13.3117 79.6034 13.1917 78.913 13.1917C78.3016 13.1917 77.8677 13.3217 77.6113 13.5818C77.3746 13.8218 77.2562 14.2619 77.2562 14.9021Z" fill="#323232"/>
<path d="M103.144 22.9438V24.8342C103.144 27.2347 102.65 28.9151 101.664 29.8753C100.678 30.8155 98.8438 31.2856 96.1613 31.2856C93.7353 31.2856 92.0489 30.8455 91.1021 29.9653C90.1751 29.0851 89.7116 27.7848 89.7116 26.0645V14.9621C89.7116 11.2813 91.9207 9.44089 96.3388 9.44089C98.7649 9.44089 100.481 9.921 101.487 10.8812C102.512 11.8214 103.025 13.2317 103.025 15.1121V17.6627H98.0548V14.8721C98.0548 14.2319 97.9167 13.7818 97.6406 13.5218C97.3842 13.2617 96.9404 13.1317 96.3092 13.1317C95.6978 13.1317 95.2836 13.2917 95.0666 13.6118C94.8497 13.9319 94.7412 14.412 94.7412 15.0521V25.5844C94.7412 26.3445 94.8398 26.8846 95.0371 27.2047C95.254 27.5248 95.7175 27.6848 96.4276 27.6848C97.0785 27.6848 97.5124 27.5248 97.7294 27.2047C97.9463 26.8846 98.0548 26.3445 98.0548 25.5844V22.9438H103.144Z" fill="#323232"/>
<path d="M119.253 13.5218H115.081V31.0155H109.963V13.5218H105.821V9.83098H119.253V13.5218Z" fill="#323232"/>
<path d="M122.581 9.83098H127.611V17.5726H131.576C133.252 17.5726 134.386 17.9527 134.978 18.7129C135.589 19.4731 135.895 20.5133 135.895 21.8336V26.8746C135.895 28.395 135.51 29.4652 134.741 30.0853C133.992 30.7055 132.946 31.0155 131.605 31.0155H122.581V9.83098ZM127.611 21.1734V27.2947H129.505C130.017 27.2947 130.402 27.1947 130.658 26.9947C130.915 26.7946 131.063 26.5846 131.102 26.3645C131.142 26.1245 131.161 25.7644 131.161 25.2843V22.5837C131.161 22.0236 131.023 21.6535 130.747 21.4735C130.471 21.2734 130.047 21.1734 129.475 21.1734H127.611Z" fill="#323232"/>
<path d="M785.036 23.178V25.0153C785.036 27.3484 784.559 28.9816 783.606 29.9148C782.652 30.8286 780.878 31.2855 778.285 31.2855C775.939 31.2855 774.308 30.8578 773.393 30.0023C772.497 29.1468 772.049 27.8831 772.049 26.211V15.4204C772.049 11.8429 774.184 10.0542 778.456 10.0542C780.802 10.0542 782.461 10.5208 783.434 11.4541C784.426 12.3679 784.922 13.7386 784.922 15.5662V18.0451H780.116V15.3329C780.116 14.7107 779.982 14.2732 779.715 14.0205C779.467 13.7677 779.038 13.6414 778.428 13.6414C777.837 13.6414 777.436 13.7969 777.226 14.108C777.017 14.4191 776.912 14.8857 776.912 15.5079V25.7444C776.912 26.4832 777.007 27.0082 777.198 27.3192C777.408 27.6303 777.856 27.7859 778.542 27.7859C779.172 27.7859 779.591 27.6303 779.801 27.3192C780.011 27.0082 780.116 26.4832 780.116 25.7444V23.178H785.036Z" fill="#323232"/>
<path d="M802.157 31.0231H797.265V20.2032L793.575 29.2732V31.0231H788.711V10.4333H793.575V21.2531L797.265 12.1832V10.4333H802.157V31.0231Z" fill="#323232"/>
<path d="M819.958 10.4333V31.0231H815.066V14.0788H812.434V25.0153C812.434 26.3957 812.358 27.4845 812.205 28.2816C812.053 29.0788 811.747 29.6815 811.29 30.0898C810.851 30.4981 810.355 30.7606 809.802 30.8772C809.249 30.9744 808.439 31.0231 807.371 31.0231H805.34V27.3776H806.083C806.713 27.3776 807.113 27.222 807.285 26.9109C807.475 26.5999 807.571 25.968 807.571 25.0153V10.4333H819.958Z" fill="#323232"/>
<path d="M837.673 31.0231H832.895L832.209 26.3277H828.461L827.746 31.0231H822.969L827.06 10.4333H833.582L837.673 31.0231ZM831.722 22.8572L830.378 13.6997L829.005 22.8572H831.722Z" fill="#323232"/>
<path opacity="0.8" fill-rule="evenodd" clip-rule="evenodd" d="M139.045 27.1096L134.12 27.0639L134.12 27.0634L4.92564 25.8644L5.04018 13.5215L135.372 14.7311L135.372 14.7316L139.16 14.7668L137.545 16.2948L139.131 17.891L137.516 19.3419L139.103 20.8996L137.488 22.389L139.074 24.0239L137.459 25.5133L139.045 27.1096ZM2.68081e-06 25.8192L4.92531 25.8649L5.03986 13.5221L0.114548 13.4764L1.70096 15.0341L0.0855538 16.6006L1.67268 18.0812L0.0576333 19.6092L1.6444 21.1284L0.028639 22.7335L1.61541 24.2527L2.68081e-06 25.8192Z" fill="white"/>
</svg>
