<svg width="26" height="26" viewBox="0 0 26 26" fill="none" xmlns="http://www.w3.org/2000/svg">
<g opacity="0.3">
<path d="M23.5894 13.635H21.5589C22.403 11.7186 22.3118 10.1673 21.9924 9.11788C21.4449 7.24715 19.597 5.21674 16.8593 5.21674C16.1293 5.21674 15.3992 5.35362 14.6464 5.62738C13.346 6.10647 12.4791 6.63118 12.0913 6.90495C11.7034 6.63118 10.8593 6.10647 9.53612 5.62738C8.78327 5.35362 8.03042 5.21674 7.32319 5.21674C4.58555 5.21674 2.73764 7.24715 2.19011 9.11788C1.87072 10.2357 1.75665 11.924 2.8289 14.0456H0.365019C0.159696 14.0456 0 14.2053 0 14.4107C0 14.616 0.159696 14.7757 0.365019 14.7757H3.26236C3.37643 14.981 3.51331 15.1863 3.673 15.3916C6.04563 18.8137 11.2015 22.5323 12.1369 22.7605V22.7833C12.1369 22.7833 12.1597 22.7833 12.1825 22.7605C12.2053 22.7605 12.2281 22.7605 12.251 22.7605V22.7376C13.0494 22.3498 18 19.1559 20.6008 15.3688C20.8517 15.0266 21.057 14.6844 21.2395 14.3422H23.635C23.8403 14.3422 24 14.1825 24 13.9772C24 13.7719 23.7947 13.635 23.5894 13.635ZM19.9392 14.981C17.5209 18.5171 13.0722 21.3688 12.1141 21.9848C11.1331 21.3688 6.70722 18.4943 4.26616 14.981C4.22053 14.9126 4.1749 14.8441 4.12928 14.7757H7.48289C7.61977 14.7757 7.75665 14.7072 7.82509 14.5703L9.35361 11.5589L11.749 17.6958C11.7947 17.8327 11.9544 17.924 12.0913 17.924C12.0913 17.924 12.0913 17.924 12.1141 17.924C12.2738 17.924 12.4106 17.8099 12.4563 17.6502L14.5551 10.4639L15.673 14.0913C15.7186 14.2281 15.8327 14.3194 15.9696 14.3422C16.1065 14.365 16.2433 14.2966 16.3346 14.1825L17.2243 12.8821L17.9772 14.1597C18.0456 14.2738 18.1597 14.3422 18.2966 14.3422H20.3498C20.2129 14.5703 20.076 14.7757 19.9392 14.981ZM20.7605 13.635H18.5247L17.5894 12.038C17.5209 11.924 17.4068 11.8555 17.27 11.8555C17.1331 11.8555 17.019 11.9011 16.9506 12.0152L16.1749 13.1559L14.9202 9.07225C14.8745 8.91255 14.7148 8.8213 14.5551 8.79848C14.3954 8.79848 14.2357 8.91255 14.1901 9.07225L12.0684 16.3954L9.76426 10.5095C9.71863 10.3726 9.58175 10.2814 9.44487 10.2814C9.28517 10.2814 9.1711 10.3498 9.10266 10.4867L7.30038 14.0228H3.673C2.76046 12.3574 2.50951 10.7605 2.92015 9.3232C3.39924 7.70343 4.97338 5.96959 7.34601 5.96959C7.98479 5.96959 8.64639 6.10647 9.30798 6.33461C10.9734 6.95058 11.8631 7.6578 11.8859 7.6578C12.0228 7.77187 12.2053 7.77187 12.3422 7.6578C12.3422 7.6578 13.2319 6.95058 14.9202 6.33461C15.5817 6.08366 16.2433 5.96959 16.8821 5.96959C19.2319 5.96959 20.8289 7.70343 21.308 9.3232C21.6958 10.6464 21.4905 12.1065 20.7605 13.635Z" fill="black"/>
</g>
</svg>
