<svg width="26" height="26" viewBox="0 0 26 26" fill="none" xmlns="http://www.w3.org/2000/svg">
<g opacity="0.3">
<path d="M24.7 6.0667H23.8333V3.90004C23.8333 3.1833 23.2501 2.60004 22.5333 2.60004H20.8C20.0833 2.60004 19.5 3.1833 19.5 3.90004V7.3667H18.4799L18.3846 7.12404C17.9253 5.95534 16.8172 5.20004 15.5614 5.20004H15.5203C15.3409 4.69694 14.8642 4.33337 14.3 4.33337C13.9659 4.33337 13.6639 4.4638 13.4333 4.67137C13.2028 4.46337 12.9008 4.33337 12.5667 4.33337C12.2326 4.33337 11.9305 4.4638 11.7 4.67137C11.4695 4.46337 11.1674 4.33337 10.8333 4.33337C10.4992 4.33337 10.1972 4.4638 9.96667 4.67137C9.73613 4.46337 9.4341 4.33337 9.1 4.33337C8.38327 4.33337 7.8 4.91664 7.8 5.63337V7.3667H6.5V3.90004C6.5 3.1833 5.91673 2.60004 5.2 2.60004H3.46667C2.74993 2.60004 2.16667 3.1833 2.16667 3.90004V6.0667H1.3C0.583267 6.0667 0 6.64997 0 7.3667V11.7C0 12.4168 0.583267 13 1.3 13H2.16667V15.1667C2.16667 15.8834 2.74993 16.4667 3.46667 16.4667H5.2C5.91673 16.4667 6.5 15.8834 6.5 15.1667V11.7H7.4828L7.82037 12.7682C7.83553 12.8167 7.85937 12.8622 7.89057 12.903L9.04713 14.3993L8.30613 22.1845C8.27623 22.4952 8.37937 22.8059 8.58953 23.0369C8.7997 23.2674 9.0987 23.4 9.41113 23.4H15.2854C15.5987 23.4 15.8986 23.267 16.1083 23.0347C16.3185 22.8025 16.4212 22.4909 16.39 22.1789L15.6329 14.6081C15.6247 14.5288 15.6563 14.4508 15.7166 14.3993L18.0943 12.3613C18.3023 12.1828 18.4483 11.9522 18.5371 11.7H19.5V15.1667C19.5 15.8834 20.0833 16.4667 20.8 16.4667H22.5333C23.2501 16.4667 23.8333 15.8834 23.8333 15.1667V13H24.7C25.4167 13 26 12.4168 26 11.7V7.3667C26 6.64997 25.4167 6.0667 24.7 6.0667ZM2.16667 12.1334H1.3C1.0608 12.1334 0.866667 11.9388 0.866667 11.7V7.3667C0.866667 7.12794 1.0608 6.93337 1.3 6.93337H2.16667V12.1334ZM5.63333 7.80004V11.2667V15.1667C5.63333 15.4055 5.4392 15.6 5.2 15.6H3.46667C3.22747 15.6 3.03333 15.4055 3.03333 15.1667V12.5667V6.50004V3.90004C3.03333 3.66127 3.22747 3.4667 3.46667 3.4667H5.2C5.4392 3.4667 5.63333 3.66127 5.63333 3.90004V7.80004ZM13.8667 5.63337C13.8667 5.3946 14.0608 5.20004 14.3 5.20004C14.5392 5.20004 14.7333 5.3946 14.7333 5.63337V7.80004V8.187C14.7333 8.35167 14.6527 8.5003 14.5357 8.58697C14.5232 8.59564 14.5115 8.60517 14.498 8.61254C14.4751 8.62597 14.4499 8.63334 14.4248 8.64114C14.3971 8.6498 14.3689 8.65587 14.339 8.65847C14.3039 8.66107 14.2697 8.65847 14.2359 8.65327C14.2107 8.64937 14.1856 8.64634 14.1622 8.63854C14.1275 8.62684 14.0955 8.60777 14.0643 8.58697C14.0456 8.5744 14.0253 8.56487 14.0088 8.5497C13.978 8.52154 13.9555 8.48687 13.9343 8.45177C13.9252 8.4366 13.9122 8.42447 13.9048 8.408C13.881 8.35384 13.8667 8.29447 13.8667 8.23337V5.63337ZM12.1333 5.63337C12.1333 5.3946 12.3275 5.20004 12.5667 5.20004C12.8059 5.20004 13 5.3946 13 5.63337V8.23337C13 8.47214 12.8059 8.6667 12.5667 8.6667C12.3275 8.6667 12.1333 8.47214 12.1333 8.23337V5.63337ZM10.4 5.63337C10.4 5.3946 10.5941 5.20004 10.8333 5.20004C11.0725 5.20004 11.2667 5.3946 11.2667 5.63337V8.23337C11.2667 8.47214 11.0725 8.6667 10.8333 8.6667C10.5941 8.6667 10.4 8.47214 10.4 8.23337V5.63337ZM8.66667 7.80004V5.63337C8.66667 5.3946 8.8608 5.20004 9.1 5.20004C9.3392 5.20004 9.53333 5.3946 9.53333 5.63337V8.23337C9.53333 8.29447 9.51903 8.35384 9.49477 8.40844C9.4874 8.4249 9.4744 8.43704 9.4653 8.4522C9.44407 8.4873 9.42153 8.52154 9.39077 8.55014C9.37473 8.56487 9.35437 8.57484 9.33617 8.58697C9.30453 8.60777 9.27247 8.62727 9.23693 8.63897C9.2144 8.64677 9.1897 8.64937 9.16587 8.65327C9.1312 8.65847 9.09653 8.6615 9.06057 8.65847C9.0311 8.65587 9.00293 8.6498 8.97563 8.64114C8.95007 8.6329 8.92493 8.62554 8.90153 8.6121C8.8881 8.60517 8.87683 8.59564 8.8647 8.58697C8.7477 8.5003 8.66667 8.35124 8.66667 8.18657V7.80004ZM6.5 10.8334V8.23337H7.8C7.8 8.70917 8.05957 9.12127 8.44177 9.3479C8.46517 9.3622 8.48943 9.3739 8.5137 9.3869C8.5527 9.40684 8.59127 9.42677 8.632 9.44237C8.6775 9.46057 8.72517 9.47357 8.77327 9.48614C8.80187 9.4935 8.8296 9.50304 8.85907 9.50867C8.86817 9.5104 8.87597 9.51387 8.88507 9.5156C8.9154 9.5208 8.9453 9.51777 8.97563 9.5208C9.01723 9.5247 9.05753 9.53337 9.1 9.53337C9.11257 9.53337 9.12427 9.5299 9.1364 9.52947C9.17627 9.52817 9.21483 9.5221 9.25383 9.51777C9.30583 9.5117 9.35697 9.50477 9.4068 9.49264C9.44407 9.48354 9.4796 9.47097 9.516 9.45884C9.56453 9.44237 9.6122 9.42417 9.65813 9.4025C9.69323 9.3856 9.72703 9.36654 9.76083 9.3466C9.80417 9.3206 9.84533 9.29287 9.88563 9.2621C9.90383 9.24824 9.92463 9.2387 9.94197 9.22397C9.95063 9.2166 9.95887 9.20967 9.9671 9.2023C9.99223 9.22484 10.0217 9.2426 10.0486 9.26297C10.0754 9.28377 10.1014 9.305 10.13 9.32364C10.1708 9.35007 10.2145 9.3713 10.2583 9.3934C10.2873 9.4077 10.3146 9.42417 10.3445 9.4363C10.3948 9.45667 10.4481 9.47097 10.501 9.48484C10.5278 9.49177 10.553 9.50217 10.5807 9.5078C10.6626 9.52384 10.7467 9.53337 10.8333 9.53337C10.92 9.53337 11.0041 9.52384 11.086 9.5078C11.1141 9.50217 11.1397 9.49177 11.167 9.4844C11.2194 9.4701 11.2723 9.45667 11.3221 9.4363C11.3529 9.42374 11.3806 9.40727 11.4101 9.39254C11.4534 9.37087 11.4968 9.34964 11.5371 9.32364C11.5661 9.305 11.5921 9.28334 11.619 9.26254C11.6458 9.24217 11.6749 9.2244 11.7 9.20187C11.7251 9.2244 11.7542 9.24174 11.781 9.26254C11.8083 9.28334 11.8343 9.30544 11.8634 9.32407C11.9037 9.35007 11.947 9.3713 11.9903 9.39297C12.0198 9.4077 12.0475 9.42417 12.0783 9.43674C12.1281 9.4571 12.1806 9.47097 12.2334 9.48484C12.2607 9.4922 12.2867 9.5026 12.3145 9.50824C12.3959 9.52384 12.48 9.53337 12.5667 9.53337C12.6533 9.53337 12.7374 9.52384 12.8193 9.5078C12.8466 9.50217 12.8722 9.4922 12.899 9.48484C12.9523 9.47054 13.0052 9.45667 13.0555 9.4363C13.0858 9.42417 13.1131 9.4077 13.1421 9.39297C13.1859 9.3713 13.2292 9.34964 13.27 9.3232C13.2986 9.30457 13.3241 9.28334 13.3514 9.26254C13.3783 9.24217 13.4078 9.2244 13.4329 9.20187C13.4411 9.20924 13.4494 9.2166 13.458 9.22354C13.4754 9.23827 13.4962 9.2478 13.5139 9.26167C13.5542 9.29244 13.5958 9.3206 13.64 9.34704C13.673 9.36654 13.7059 9.38517 13.7406 9.40164C13.7882 9.4246 13.8372 9.4428 13.8879 9.46014C13.9221 9.47184 13.9559 9.48354 13.991 9.4922C14.0439 9.5052 14.0981 9.51214 14.1527 9.51864C14.1891 9.52297 14.2246 9.5286 14.2614 9.52947C14.2744 9.5299 14.2866 9.53337 14.3 9.53337C14.3433 9.53337 14.3845 9.5247 14.4265 9.52037C14.456 9.51777 14.4855 9.52037 14.5154 9.5156C14.5253 9.51387 14.5344 9.5104 14.5444 9.50867C14.5639 9.50477 14.5825 9.49914 14.6016 9.49437C14.6571 9.48094 14.7108 9.4649 14.7628 9.4441C14.7914 9.43327 14.8191 9.42157 14.8464 9.40857C14.8768 9.39384 14.9062 9.37737 14.9353 9.36047C15.252 9.18107 15.4878 8.8773 15.5679 8.512C15.587 8.56054 15.6 8.6121 15.6 8.6667V10.2206L14.9873 10.8334H6.5ZM17.7667 11.1891C17.7667 11.3872 17.6804 11.5744 17.5305 11.7035L15.1532 13.741C14.8776 13.9772 14.7346 14.3334 14.7706 14.6948L15.5276 22.2656C15.5367 22.3596 15.493 22.4237 15.4657 22.4536C15.4388 22.4831 15.379 22.5334 15.285 22.5334H9.41113C9.31753 22.5334 9.25773 22.4835 9.23087 22.4536C9.204 22.4237 9.1598 22.36 9.16847 22.2664L9.92593 14.3104C9.93633 14.2008 9.9047 14.0916 9.83753 14.0041L8.62333 12.4337L8.3915 11.7H14.9873C15.2152 11.7 15.4388 11.6077 15.6 11.4461L16.2127 10.8334C16.3765 10.6696 16.4667 10.452 16.4667 10.2206V8.6667C16.4667 8.1025 16.1031 7.62584 15.6 7.44644V6.06714C16.481 6.0823 17.2545 6.6179 17.5777 7.4408L17.7407 7.8503C17.7576 7.88454 17.7667 7.92224 17.7667 7.9595V11.1891ZM19.5 10.8334H18.6333V8.23337H19.5V10.8334ZM22.9667 6.50004V12.5667V15.1667C22.9667 15.4055 22.7725 15.6 22.5333 15.6H20.8C20.5608 15.6 20.3667 15.4055 20.3667 15.1667V11.2667V7.80004V3.90004C20.3667 3.66127 20.5608 3.4667 20.8 3.4667H22.5333C22.7725 3.4667 22.9667 3.66127 22.9667 3.90004V6.50004ZM25.1333 11.7C25.1333 11.9388 24.9392 12.1334 24.7 12.1334H23.8333V6.93337H24.7C24.9392 6.93337 25.1333 7.12794 25.1333 7.3667V11.7Z" fill="black"/>
</g>
</svg>
