<svg width="26" height="26" viewBox="0 0 26 26" fill="none" xmlns="http://www.w3.org/2000/svg">
<g opacity="0.3" clip-path="url(#clip0)">
<path d="M20.7854 9.60999C20.6938 9.49371 20.6058 9.38199 20.5223 9.2742C19.7128 8.23091 19.3016 7.06888 18.9387 6.04367C18.6805 5.31378 18.4574 4.68354 18.1323 4.23185C17.975 4.01344 17.732 3.80661 17.4101 3.61736C17.2101 3.49961 16.9525 3.5663 16.8352 3.76649C16.7175 3.96644 16.7843 4.22385 16.9843 4.34148C17.2592 4.50291 17.3896 4.63802 17.4507 4.72267C17.7057 5.07692 17.9102 5.65461 18.1469 6.32385C18.5116 7.35533 18.9662 8.6388 19.8586 9.78914C19.9433 9.89828 20.0327 10.0117 20.1255 10.1297C21.6003 12.0027 23.8192 14.8198 23.1973 20.0761C21.9136 20.7368 14.2246 24.4251 7.75067 21.6185C7.63747 21.5694 7.50815 21.5725 7.39766 21.6274C7.28704 21.6821 7.20595 21.7828 7.17605 21.9025C7.17138 21.9209 6.71931 23.6534 4.74593 24.9921C4.20146 24.0524 2.73329 21.4309 1.45745 18.3641C0.165359 15.2588 0.872864 11.9905 1.14455 10.987C1.62946 11.02 2.59413 11.0645 3.90394 11.0217C5.70026 10.9625 8.09064 11.6966 9.40119 13.9291C9.49802 14.0941 9.69416 14.1727 9.87786 14.1207C9.91834 14.1089 13.9348 13.015 15.5804 16.3212C15.6351 16.4312 15.7354 16.5117 15.8544 16.5414C17.5306 16.9604 17.7735 16.6897 17.8903 16.5595C18.1036 16.3216 18.0131 16.0559 17.876 15.6538C17.6026 14.8518 16.9625 12.9743 17.2133 9.05654C17.2208 8.93743 17.1773 8.82091 17.094 8.73564C17.0779 8.71903 16.6928 8.32873 16.1493 7.99663C15.9511 7.87593 15.6926 7.93831 15.5719 8.13629C15.4512 8.33427 15.5137 8.59278 15.7115 8.71374C15.9925 8.88526 16.2262 9.07869 16.3632 9.20087C16.1368 13.1364 16.7914 15.0743 17.078 15.9149C16.8548 15.8917 16.5472 15.8391 16.241 15.7698C14.5459 12.6327 11.0326 13.0357 9.96424 13.2419C8.43972 10.8963 5.84496 10.119 3.87687 10.182C2.05138 10.2411 0.893412 10.1243 0.882092 10.123C0.686205 10.1025 0.504469 10.2196 0.441101 10.4047C0.38204 10.5774 -0.985844 14.6782 0.682022 18.6865C2.30153 22.5784 4.22631 25.7658 4.24563 25.7976C4.32463 25.9278 4.46317 25.9999 4.60517 25.9999C4.6785 25.9999 4.75282 25.9808 4.82 25.9402C6.72067 24.8044 7.53104 23.3047 7.8341 22.5611C11.6155 24.0399 15.6664 23.5035 18.442 22.7728C21.542 21.9565 23.7012 20.7622 23.7916 20.7119C23.9075 20.6472 23.9859 20.5315 24.0032 20.3999C24.758 14.6549 22.2713 11.4969 20.7854 9.60999Z" fill="black"/>
<path d="M12.4617 0C9.68257 0 7.42175 2.26082 7.42175 5.03989C7.42175 7.81897 9.68257 10.0798 12.4617 10.0798C15.2407 10.0798 17.5016 7.81897 17.5016 5.03989C17.5016 2.26082 15.2407 0 12.4617 0ZM12.4617 9.23977C10.1458 9.23977 8.26178 7.35571 8.26178 5.03989C8.26178 2.72408 10.1458 0.840023 12.4617 0.840023C14.7775 0.840023 16.6615 2.72408 16.6615 5.03989C16.6617 7.35571 14.7775 9.23977 12.4617 9.23977Z" fill="black"/>
<path d="M12.4617 2.51996C11.0721 2.51996 9.94173 3.65037 9.94173 5.03991C9.94173 6.42944 11.0721 7.55985 12.4617 7.55985C13.8512 7.55985 14.9816 6.42944 14.9816 5.03991C14.9816 3.65037 13.8512 2.51996 12.4617 2.51996ZM12.4617 6.71983C11.5354 6.71983 10.7817 5.96618 10.7817 5.03991C10.7817 4.11363 11.5354 3.35998 12.4617 3.35998C13.388 3.35998 14.1416 4.11363 14.1416 5.03991C14.1417 5.96618 13.388 6.71983 12.4617 6.71983Z" fill="black"/>
<path d="M16.5978 19.0972C16.4747 18.9007 16.216 18.8405 16.019 18.9637C12.9697 20.8688 8.58786 16.9486 8.54418 16.9089C8.37216 16.7528 8.10676 16.7659 7.95098 16.9374C7.79521 17.1089 7.80776 17.3745 7.97928 17.5305C8.02825 17.5748 9.19558 18.6285 10.8039 19.4329C11.9911 20.0265 13.1081 20.3241 14.1216 20.3241C14.9846 20.3241 15.7722 20.1082 16.4642 19.676C16.661 19.5528 16.7206 19.2939 16.5978 19.0972Z" fill="black"/>
<path d="M10.7357 14.9282L9.65905 12.8264C9.55299 12.6198 9.29952 12.5381 9.09379 12.6439C8.8872 12.7497 8.80562 13.0028 8.91131 13.2092L9.98795 15.311C10.0625 15.4563 10.2096 15.5397 10.3621 15.5397C10.4266 15.5397 10.4919 15.5249 10.5532 15.4936C10.7599 15.3877 10.8414 15.1346 10.7357 14.9282Z" fill="black"/>
</g>
<defs>
<clipPath id="clip0">
<rect width="26" height="26" fill="white"/>
</clipPath>
</defs>
</svg>
