<svg width="26" height="27" viewBox="0 0 26 27" fill="none" xmlns="http://www.w3.org/2000/svg">
<g opacity="0.3" clip-path="url(#clip0)">
<path d="M24.074 14.8021H5.83986V5.85309C5.83986 5.39854 6.01374 4.96261 6.32325 4.6412C6.63275 4.31979 7.05254 4.13922 7.49025 4.13922C7.92796 4.13922 8.34774 4.31979 8.65725 4.6412C8.96676 4.96261 9.14064 5.39854 9.14064 5.85309V6.20641H8.36978C8.33011 6.20695 8.29093 6.21568 8.25453 6.23207C8.21813 6.24846 8.18523 6.2722 8.15773 6.30191C8.13024 6.33161 8.1087 6.36669 8.09436 6.40511C8.08003 6.44353 8.07319 6.48453 8.07423 6.52572V7.47203H7.44922C7.41057 7.47118 7.37216 7.47855 7.33635 7.4937C7.30055 7.50884 7.26811 7.53143 7.24103 7.56009C7.21396 7.58874 7.19281 7.62284 7.17891 7.6603C7.165 7.69776 7.15862 7.73778 7.16017 7.77789V9.14762C7.16017 9.32238 7.28098 9.47583 7.44922 9.47583H11.5161C11.5993 9.47363 11.6784 9.43835 11.7372 9.37729C11.796 9.31623 11.8299 9.23404 11.832 9.14772V7.77789C11.829 7.69389 11.7941 7.61455 11.7349 7.55722C11.6757 7.4999 11.597 7.46927 11.5161 7.47203H10.918V6.52572C10.9141 6.43965 10.8784 6.35846 10.8184 6.299C10.7583 6.23954 10.6785 6.20638 10.5956 6.20641H9.75001V5.85309C9.75001 5.23071 9.51193 4.63382 9.08814 4.19374C8.66436 3.75365 8.08958 3.50641 7.49025 3.50641C6.89092 3.50641 6.31614 3.75365 5.89235 4.19374C5.46856 4.63382 5.23048 5.23071 5.23048 5.85309V14.8021H1.92599C1.50175 14.8021 1.09489 14.9771 0.7949 15.2886C0.494915 15.6002 0.326385 16.0227 0.326385 16.4632C0.326385 16.9038 0.494915 17.3263 0.7949 17.6378C1.09489 17.9494 1.50175 18.1244 1.92599 18.1244H2.53908V20.1055C2.53843 20.945 2.74638 21.7704 3.14281 22.5021C3.53925 23.2337 4.11077 23.8467 4.80209 24.2818L4.08232 25.0264C4.05343 25.0555 4.03039 25.0902 4.01453 25.1286C3.99867 25.167 3.99031 25.2083 3.98994 25.2501C3.98957 25.2918 3.99719 25.3333 4.01236 25.372C4.02754 25.4107 4.04996 25.4458 4.07832 25.4755C4.10669 25.5051 4.14044 25.5286 4.17761 25.5445C4.21479 25.5605 4.25465 25.5686 4.29487 25.5685C4.3351 25.5683 4.3749 25.5599 4.41196 25.5436C4.44902 25.5274 4.4826 25.5036 4.51076 25.4738L5.3648 24.5826C5.95349 24.8465 6.58819 24.9817 7.22939 24.9798H18.7706C19.4259 24.9819 20.0743 24.8407 20.6736 24.5655L21.4896 25.4148C21.5177 25.4448 21.5512 25.4687 21.5882 25.4852C21.6252 25.5016 21.665 25.5103 21.7053 25.5106C21.7456 25.511 21.7855 25.503 21.8228 25.4872C21.8601 25.4714 21.894 25.448 21.9225 25.4185C21.951 25.389 21.9736 25.3539 21.989 25.3152C22.0043 25.2766 22.0121 25.2351 22.0119 25.1933C22.0118 25.1515 22.0036 25.1101 21.9879 25.0716C21.9722 25.0331 21.9492 24.9982 21.9205 24.969L21.2317 24.2598C21.9137 23.8224 22.4766 23.211 22.8668 22.4839C23.2571 21.7567 23.4616 20.9379 23.461 20.1055V18.1244H24.074C24.4983 18.1244 24.9051 17.9494 25.2051 17.6378C25.5051 17.3263 25.6736 16.9038 25.6736 16.4632C25.6736 16.0227 25.5051 15.6002 25.2051 15.2886C24.9051 14.9771 24.4983 14.8021 24.074 14.8021ZM11.2227 8.84313H7.76955V8.10485H11.2227V8.84313ZM10.3086 7.47203H8.68361V6.83922H10.3086V7.47203ZM22.8516 20.1055C22.8519 20.8867 22.6448 21.6529 22.253 22.3198C21.8612 22.9867 21.2999 23.5285 20.6308 23.8856C20.603 23.8942 20.5767 23.9073 20.553 23.9245C19.9976 24.2045 19.3879 24.3491 18.7705 24.347H7.22939C6.69317 24.3471 6.16221 24.2373 5.66685 24.0241C5.17149 23.8109 4.72145 23.4985 4.34245 23.1045C3.96345 22.7106 3.66292 22.243 3.45805 21.7284C3.25317 21.2138 3.14797 20.6623 3.14845 20.1055V18.1244H22.8516V20.1055ZM24.074 17.4916H1.92599C1.66337 17.4916 1.4115 17.3832 1.22579 17.1904C1.04009 16.9975 0.93576 16.736 0.93576 16.4632C0.93576 16.1905 1.04009 15.929 1.22579 15.7361C1.4115 15.5433 1.66337 15.4349 1.92599 15.4349H24.074C24.3367 15.4349 24.5885 15.5433 24.7742 15.7361C24.9599 15.929 25.0643 16.1905 25.0643 16.4632C25.0643 16.736 24.9599 16.9975 24.7742 17.1904C24.5885 17.3832 24.3367 17.4916 24.074 17.4916Z" fill="black"/>
<path d="M9.80078 10.2321C9.80078 10.1482 9.76868 10.0677 9.71154 10.0084C9.6544 9.94905 9.5769 9.91571 9.49609 9.91571C9.41529 9.91571 9.33779 9.94905 9.28065 10.0084C9.22351 10.0677 9.19141 10.1482 9.19141 10.2321V10.5745C9.19141 10.6584 9.22351 10.7389 9.28065 10.7983C9.33779 10.8576 9.41529 10.8909 9.49609 10.8909C9.5769 10.8909 9.6544 10.8576 9.71154 10.7983C9.76868 10.7389 9.80078 10.6584 9.80078 10.5745V10.2321Z" fill="black"/>
<path d="M8.68359 10.2321C8.68359 10.1482 8.65149 10.0677 8.59435 10.0084C8.53721 9.94905 8.45971 9.91571 8.37891 9.91571C8.2981 9.91571 8.2206 9.94905 8.16346 10.0084C8.10632 10.0677 8.07422 10.1482 8.07422 10.2321V10.5745C8.07422 10.6584 8.10632 10.7389 8.16346 10.7983C8.2206 10.8576 8.2981 10.8909 8.37891 10.8909C8.45971 10.8909 8.53721 10.8576 8.59435 10.7983C8.65149 10.7389 8.68359 10.6584 8.68359 10.5745V10.2321Z" fill="black"/>
<path d="M10.8672 10.2321C10.8672 10.1482 10.8351 10.0677 10.7779 10.0084C10.7208 9.94905 10.6433 9.91571 10.5625 9.91571C10.4817 9.91571 10.4042 9.94905 10.3471 10.0084C10.2899 10.0677 10.2578 10.1482 10.2578 10.2321V10.5745C10.2578 10.6584 10.2899 10.7389 10.3471 10.7983C10.4042 10.8576 10.4817 10.8909 10.5625 10.8909C10.6433 10.8909 10.7208 10.8576 10.7779 10.7983C10.8351 10.7389 10.8672 10.6584 10.8672 10.5745V10.2321Z" fill="black"/>
<path d="M9.49609 11.3996C9.41529 11.3996 9.33779 11.4329 9.28065 11.4923C9.22351 11.5516 9.19141 11.6321 9.19141 11.716V12.0584C9.19141 12.1423 9.22351 12.2228 9.28065 12.2821C9.33779 12.3415 9.41529 12.3748 9.49609 12.3748C9.5769 12.3748 9.6544 12.3415 9.71154 12.2821C9.76868 12.2228 9.80078 12.1423 9.80078 12.0584V11.716C9.80078 11.6321 9.76868 11.5516 9.71154 11.4923C9.6544 11.4329 9.5769 11.3996 9.49609 11.3996Z" fill="black"/>
<path d="M8.37891 11.3996C8.2981 11.3996 8.2206 11.4329 8.16346 11.4923C8.10632 11.5516 8.07422 11.6321 8.07422 11.716V12.0584C8.07422 12.1423 8.10632 12.2228 8.16346 12.2821C8.2206 12.3415 8.2981 12.3748 8.37891 12.3748C8.45971 12.3748 8.53721 12.3415 8.59435 12.2821C8.65149 12.2228 8.68359 12.1423 8.68359 12.0584V11.716C8.68359 11.6321 8.65149 11.5516 8.59435 11.4923C8.53721 11.4329 8.45971 11.3996 8.37891 11.3996Z" fill="black"/>
<path d="M10.5625 11.3996C10.4817 11.3996 10.4042 11.4329 10.3471 11.4923C10.2899 11.5516 10.2578 11.6321 10.2578 11.716V12.0584C10.2578 12.1423 10.2899 12.2228 10.3471 12.2821C10.4042 12.3415 10.4817 12.3748 10.5625 12.3748C10.6433 12.3748 10.7208 12.3415 10.7779 12.2821C10.8351 12.2228 10.8672 12.1423 10.8672 12.0584V11.716C10.8672 11.6321 10.8351 11.5516 10.7779 11.4923C10.7208 11.4329 10.6433 11.3996 10.5625 11.3996Z" fill="black"/>
</g>
<defs>
<clipPath id="clip0">
<rect width="26" height="27" fill="white"/>
</clipPath>
</defs>
</svg>
