<svg width="26" height="26" viewBox="0 0 26 26" fill="none" xmlns="http://www.w3.org/2000/svg">
<g opacity="0.3">
<g clip-path="url(#clip0)">
<path d="M24.6305 10.6983H22.8793V8.85523C22.8793 8.29835 22.4263 7.84527 21.8693 7.84527H20.6823C20.5884 7.84527 20.4977 7.85914 20.4114 7.88326V7.51149C20.4114 6.9546 19.9584 6.50153 19.4014 6.50153H17.4406C16.8837 6.50153 16.4306 6.95455 16.4306 7.51149V10.6983H8.56927V7.51149C8.56927 6.9546 8.11624 6.50153 7.55931 6.50153H5.59848C5.04159 6.50153 4.58852 6.95455 4.58852 7.51149V7.88326C4.50214 7.85914 4.41152 7.84527 4.31757 7.84527H3.13066C2.57377 7.84527 2.1207 8.2983 2.1207 8.85523V10.6983H0.369482C0.165381 10.6983 0 10.8638 0 11.0678V13.9322C0 14.1363 0.165381 14.3017 0.369482 14.3017H2.1207V16.1448C2.1207 16.7017 2.57373 17.1548 3.13066 17.1548H4.31762C4.41156 17.1548 4.50224 17.1409 4.58857 17.1168V17.4886C4.58857 18.0454 5.04159 18.4985 5.59852 18.4985H7.55936C8.11624 18.4985 8.56932 18.0454 8.56932 17.4886V14.3017H16.4307V17.4886C16.4307 18.0454 16.8838 18.4985 17.4407 18.4985H19.4015C19.9584 18.4985 20.4115 18.0455 20.4115 17.4886V17.1168C20.4979 17.1409 20.5885 17.1548 20.6824 17.1548H21.8694C22.4263 17.1548 22.8794 16.7017 22.8794 16.1448V14.3017H24.6306C24.8347 14.3017 25.0001 14.1363 25.0001 13.9322V11.0678C25 10.8638 24.8346 10.6983 24.6305 10.6983ZM2.1207 13.5627H0.739012V11.4373H2.1207V13.5627ZM4.58857 16.1449C4.58857 16.2942 4.46703 16.4158 4.31762 16.4158H3.13066C2.98129 16.4158 2.85971 16.2943 2.85971 16.1449V13.9322V11.0678V8.85518C2.85971 8.70577 2.98129 8.58424 3.13066 8.58424H4.31762C4.46703 8.58424 4.58857 8.70577 4.58857 8.85518V16.1449ZM7.83026 11.0679V13.9323V17.4886C7.83026 17.638 7.70868 17.7595 7.55931 17.7595H5.59848C5.44911 17.7595 5.32753 17.638 5.32753 17.4886V16.1448V8.85518V7.51149C5.32753 7.36207 5.44911 7.24054 5.59848 7.24054H7.55931C7.70868 7.24054 7.83026 7.36207 7.83026 7.51149V11.0679ZM16.4306 13.5627H8.56927V11.4373H16.4306V13.5627ZM19.6724 8.85513V16.1448V17.4886C19.6724 17.638 19.5508 17.7596 19.4015 17.7596H17.4406C17.2913 17.7596 17.1697 17.638 17.1697 17.4886V13.9323V11.0679V7.51153C17.1697 7.36212 17.2913 7.24059 17.4406 7.24059H19.4015C19.5508 7.24059 19.6724 7.36212 19.6724 7.51153V8.85513ZM22.1403 11.0678V13.9322V16.1449C22.1403 16.2943 22.0188 16.4158 21.8694 16.4158H20.6824C20.533 16.4158 20.4114 16.2943 20.4114 16.1449V8.85518C20.4114 8.70577 20.533 8.58424 20.6824 8.58424H21.8694C22.0188 8.58424 22.1403 8.70577 22.1403 8.85518V11.0678ZM24.2609 13.5627H22.8793V11.4373H24.2609V13.5627Z" fill="black"/>
</g>
</g>
<defs>
<clipPath id="clip0">
<rect width="25" height="25" fill="white"/>
</clipPath>
</defs>
</svg>
