<svg width="26" height="26" viewBox="0 0 26 26" fill="none" xmlns="http://www.w3.org/2000/svg">
<g opacity="0.3">
<g clip-path="url(#clip0)">
<path d="M20.3526 8.30279C18.6067 6.92914 16.1337 7.30945 14.1746 7.79431C13.8595 7.8725 13.5363 7.9104 13.2124 7.9245C13.161 7.66577 13.0969 7.40631 13.0185 7.14886L14.5326 6.92328C16.4719 6.6347 17.9693 5.13727 18.2581 3.198L18.4815 1.69727C18.5009 1.64508 18.5082 1.5907 18.5054 1.53558L18.5847 1L16.3867 1.32721C14.4475 1.61633 12.95 3.11322 12.6613 5.05267L12.5296 5.9378C12.0803 5.07538 11.4339 4.3208 10.5424 3.84509C10.3441 3.73926 10.0993 3.8147 9.99342 4.01208C9.88795 4.21002 9.96284 4.45538 10.1604 4.56085C11.3982 5.22076 12.081 6.55615 12.3795 7.89813C12.1901 7.87433 12.0025 7.841 11.8172 7.79486C9.85792 7.30981 7.38417 6.92914 5.63899 8.30334C4.07564 9.53381 3.32454 11.9695 3.34413 15.7491C3.35841 18.5417 4.96645 21.7631 7.2549 23.5831C8.76607 24.7854 10.3911 25.2358 11.9517 24.8835C12.6353 24.7294 13.3563 24.7294 14.0395 24.8835C14.385 24.9614 14.7329 24.9998 15.0819 24.9998C16.3129 24.9998 17.559 24.5197 18.7363 23.5831C21.0248 21.7627 22.6325 18.5413 22.6471 15.7491C22.6669 11.9689 21.9162 9.53345 20.3526 8.30279ZM14.4129 6.12109L14.0573 6.17419L17.5083 2.72321L17.4552 3.0788C17.22 4.66248 15.9971 5.88544 14.4129 6.12109ZM16.5063 2.12958L17.0338 2.05103L13.3851 5.69977L13.4638 5.17187C13.6993 3.5882 14.9223 2.3656 16.5063 2.12958ZM18.2319 22.9485C17.3173 23.6767 15.8795 24.4675 14.2182 24.092C13.8185 24.0021 13.4072 23.957 12.9958 23.957C12.5847 23.957 12.1735 24.0021 11.7738 24.092C10.1157 24.4666 8.6747 23.6769 7.76009 22.9485C5.6844 21.2971 4.16847 18.2679 4.15547 15.7448C4.13716 12.2313 4.78682 10.0057 6.1407 8.94019C7.28731 8.03802 8.97884 7.92779 11.6229 8.58166C11.9166 8.65436 12.2161 8.69446 12.5173 8.71954C12.5404 8.92718 12.5558 9.1319 12.5624 9.33075C12.5692 9.54993 12.7493 9.72314 12.9671 9.72314H12.9801C13.2042 9.71582 13.3794 9.52887 13.3725 9.30511C13.3664 9.11743 13.3518 8.92389 13.332 8.72852C13.6812 8.70819 14.0289 8.66608 14.3691 8.58221C17.0131 7.92853 18.7043 8.03894 19.8515 8.94055C21.2057 10.0062 21.8548 12.2322 21.8367 15.7455C21.8241 18.2674 20.3076 21.2971 18.2319 22.9485Z" fill="black"/>
<path d="M9.02058 9.18555C7.00843 9.18555 5.37147 11.0045 5.37147 13.2401C5.37147 13.464 5.55275 13.6456 5.77687 13.6456C6.00117 13.6456 6.18245 13.464 6.18245 13.2401C6.18245 11.4517 7.45594 9.99634 9.02058 9.99634C9.24488 9.99634 9.42616 9.8147 9.42616 9.59094C9.42616 9.36719 9.24488 9.18555 9.02058 9.18555Z" fill="black"/>
<path d="M14.1616 9.30435C13.8324 9.63358 13.3953 9.81485 12.931 9.81485C12.4668 9.81485 12.0288 9.63358 11.7 9.30435C11.5414 9.14578 11.2852 9.14578 11.1267 9.30435C10.9683 9.46292 10.9681 9.71945 11.1267 9.87766C11.6088 10.3596 12.2502 10.6256 12.931 10.6256C13.6118 10.6256 14.2528 10.3601 14.7349 9.87766C14.8935 9.71909 14.8935 9.46237 14.7349 9.30435C14.5764 9.14578 14.32 9.14578 14.1616 9.30435Z" fill="black"/>
</g>
</g>
<defs>
<clipPath id="clip0">
<rect width="24" height="24" fill="white" transform="translate(1 1)"/>
</clipPath>
</defs>
</svg>
