<svg width="26" height="26" viewBox="0 0 26 26" fill="none" xmlns="http://www.w3.org/2000/svg">
<g opacity="0.3">
<path d="M20.6229 0H5.37707C2.41216 0 0 2.41216 0 5.37707V20.6229C0 23.5878 2.41216 26 5.37707 26H17.5246C17.7373 26 17.9096 25.8276 17.9096 25.615C17.9096 25.4024 17.7372 25.2301 17.5246 25.2301H5.37707C2.83669 25.2301 0.769945 23.1633 0.769945 20.6229V5.37707C0.769945 2.83669 2.83669 0.769945 5.37707 0.769945H20.6229C23.1633 0.769945 25.23 2.83669 25.23 5.37707V20.6229C25.23 23.1633 23.1633 25.23 20.6229 25.23H19.0646C18.8519 25.23 18.6796 25.4024 18.6796 25.615C18.6796 25.8276 18.8519 25.9999 19.0646 25.9999H20.6229C23.5879 26 26 23.5878 26 20.6229V5.37707C26 2.41216 23.5879 0 20.6229 0V0Z" fill="black"/>
<path d="M19.2877 23.6308C19.8747 23.3251 20.3074 22.809 20.5062 22.1777L22.7345 15.1032C23.3324 13.2048 22.2319 11.1701 20.2669 10.6632C17.7757 10.0204 15.3839 12.2658 15.9903 14.8489C16.4454 16.7874 16.3725 18.8069 15.7798 20.689C15.1198 22.7838 17.3265 24.6526 19.2877 23.6308ZM16.5141 20.9204C17.1485 18.9064 17.2265 16.7461 16.7399 14.6729C16.3354 12.9509 17.662 11.324 19.4065 11.324C21.2275 11.324 22.557 13.1032 22 14.8719L19.7717 21.9464C19.6347 22.3815 19.3364 22.7372 18.9319 22.9479C17.5959 23.6438 16.0551 22.3777 16.5141 20.9204Z" fill="black"/>
<path d="M7.85647 23.1417C7.10775 23.1417 6.45338 22.6613 6.22817 21.9464L4.55899 16.6469C4.49511 16.4441 4.27883 16.3316 4.07616 16.3954C3.87334 16.4593 3.76071 16.6754 3.82459 16.8783L5.49372 22.1777C5.8204 23.2148 6.76985 23.9117 7.85642 23.9117C9.53306 23.9117 10.7238 22.2878 10.2202 20.689C9.62721 18.8062 9.55414 16.7899 10.0096 14.8489C10.6152 12.2701 8.24241 10.0158 5.73305 10.6632C4.18453 11.0627 3.10299 12.456 3.10299 14.0514C3.10299 14.6531 3.24711 15.0451 3.36187 15.4095C3.42576 15.6122 3.64193 15.7248 3.84475 15.661C4.04757 15.5971 4.1602 15.381 4.09632 15.1781C3.98542 14.826 3.87299 14.527 3.87299 14.0514C3.87299 12.5417 5.10494 11.3233 6.59816 11.3233C8.37378 11.3233 9.65743 12.981 9.26001 14.673C8.7876 16.6858 8.83218 18.8453 9.48579 20.9204C9.83542 22.0303 9.00367 23.1417 7.85647 23.1417Z" fill="black"/>
<path d="M16.6296 9.35805C17.2391 9.62688 17.9544 9.3813 18.2766 8.79539L18.7533 7.92835C18.8557 7.74204 18.7877 7.50793 18.6014 7.40551C18.415 7.30313 18.181 7.37103 18.0786 7.5574L17.6019 8.42443C17.4723 8.66021 17.1852 8.76152 16.9402 8.65351C15.8092 8.15489 14.6149 7.87975 13.385 7.83212V4.32481C13.385 4.11219 13.2126 3.93984 13 3.93984C12.7874 3.93984 12.615 4.11219 12.615 4.32481V7.83212C11.3851 7.8797 10.1908 8.15489 9.05978 8.65351C8.8141 8.76182 8.52739 8.6596 8.3981 8.42443L6.40641 4.8016C6.26407 4.54272 6.36071 4.20949 6.63615 4.07979C10.6623 2.18322 15.3416 2.18509 19.3639 4.07979C19.6391 4.20949 19.736 4.54267 19.5936 4.8016L18.8204 6.20788C18.718 6.3942 18.786 6.6283 18.9723 6.73073C19.1587 6.8332 19.3927 6.76516 19.4952 6.57884L20.2683 5.17261C20.6325 4.51037 20.3499 3.6932 19.692 3.38323C15.4581 1.3889 10.5378 1.39078 6.30805 3.38323C5.65023 3.69309 5.36753 4.51022 5.73173 5.17256L7.72342 8.79539C8.04517 9.38059 8.75982 9.62719 9.37041 9.35805C11.6819 8.33907 14.3138 8.33714 16.6296 9.35805Z" fill="black"/>
</g>
</svg>
