<svg width="26" height="26" viewBox="0 0 26 26" fill="none" xmlns="http://www.w3.org/2000/svg">
<g opacity="0.3" clip-path="url(#clip0)">
<g clip-path="url(#clip1)">
<path d="M19.3126 7.71875H12C11.7196 7.71875 11.4922 7.9461 11.4922 8.22656C11.4922 8.50703 11.7196 8.73437 12 8.73437H19.3126C19.5931 8.73437 19.8204 8.50703 19.8204 8.22656C19.8204 7.9461 19.5931 7.71875 19.3126 7.71875Z" fill="black"/>
<path d="M17.5357 10.3051C17.4412 10.2106 17.3102 10.1563 17.1767 10.1563C17.0431 10.1563 16.9121 10.2106 16.8176 10.3051C16.7232 10.3996 16.6688 10.5306 16.6688 10.6641C16.6688 10.7977 16.7232 10.9287 16.8176 11.0231C16.9121 11.1176 17.0431 11.1719 17.1767 11.1719C17.3102 11.1719 17.4412 11.1176 17.5357 11.0231C17.6301 10.9287 17.6845 10.7977 17.6845 10.6641C17.6845 10.5306 17.6301 10.3996 17.5357 10.3051Z" fill="black"/>
<path d="M12.3585 2.33238C12.2641 2.23793 12.1331 2.18359 11.9995 2.18359C11.866 2.18359 11.7349 2.23793 11.6405 2.33238C11.546 2.42684 11.4917 2.55785 11.4917 2.69141C11.4917 2.82496 11.546 2.95597 11.6405 3.05043C11.7349 3.14488 11.866 3.19922 11.9995 3.19922C12.1331 3.19922 12.2641 3.14488 12.3585 3.05043C12.453 2.95597 12.5073 2.82496 12.5073 2.69141C12.5073 2.55785 12.453 2.42684 12.3585 2.33238Z" fill="black"/>
<path d="M15.0406 10.1562H12C11.7196 10.1562 11.4922 10.3836 11.4922 10.6641C11.4922 10.9445 11.7196 11.1719 12 11.1719H15.0406C15.3211 11.1719 15.5485 10.9445 15.5485 10.6641C15.5485 10.3836 15.3211 10.1562 15.0406 10.1562Z" fill="black"/>
<path d="M19.3126 13.2031H12C11.7196 13.2031 11.4922 13.4305 11.4922 13.7109C11.4922 13.9914 11.7196 14.2187 12 14.2187H19.3126C19.5931 14.2187 19.8204 13.9914 19.8204 13.7109C19.8204 13.4305 19.5931 13.2031 19.3126 13.2031Z" fill="black"/>
<path d="M17.5357 15.7895C17.4412 15.695 17.3102 15.6407 17.1767 15.6407C17.0431 15.6407 16.9121 15.695 16.8176 15.7895C16.7232 15.8839 16.6688 16.0149 16.6688 16.1485C16.6688 16.2821 16.7232 16.4131 16.8176 16.5075C16.9121 16.602 17.0431 16.6563 17.1767 16.6563C17.3102 16.6563 17.4412 16.602 17.5357 16.5075C17.6301 16.4131 17.6845 16.2821 17.6845 16.1485C17.6845 16.0149 17.6301 15.8839 17.5357 15.7895Z" fill="black"/>
<path d="M15.0406 15.6406H12C11.7196 15.6406 11.4922 15.868 11.4922 16.1484C11.4922 16.4289 11.7196 16.6562 12 16.6562H15.0406C15.3211 16.6562 15.5485 16.4289 15.5485 16.1484C15.5485 15.868 15.3211 15.6406 15.0406 15.6406Z" fill="black"/>
<path d="M19.3126 18.6875H12C11.7196 18.6875 11.4922 18.9148 11.4922 19.1953C11.4922 19.4758 11.7196 19.7031 12 19.7031H19.3126C19.5931 19.7031 19.8204 19.4758 19.8204 19.1953C19.8204 18.9148 19.5931 18.6875 19.3126 18.6875Z" fill="black"/>
<path d="M17.5357 21.2738C17.4412 21.1794 17.3102 21.1251 17.1767 21.1251C17.0431 21.1251 16.9121 21.1794 16.8176 21.2738C16.7232 21.3683 16.6688 21.4993 16.6688 21.6329C16.6688 21.7664 16.7232 21.8974 16.8176 21.9919C16.9121 22.0863 17.0431 22.1407 17.1767 22.1407C17.3102 22.1407 17.4412 22.0863 17.5357 21.9919C17.6301 21.8974 17.6845 21.7664 17.6845 21.6329C17.6845 21.4993 17.6301 21.3683 17.5357 21.2738Z" fill="black"/>
<path d="M15.0406 21.1249H12C11.7196 21.1249 11.4922 21.3523 11.4922 21.6328C11.4922 21.9132 11.7196 22.1406 12 22.1406H15.0406C15.3211 22.1406 15.5485 21.9132 15.5485 21.6328C15.5485 21.3523 15.3211 21.1249 15.0406 21.1249Z" fill="black"/>
<path d="M20.2896 1.98052H16.411C15.8503 1.44625 15.0924 1.11719 14.2587 1.11719H13.8138C13.4737 0.443929 12.775 0 12 0C11.2249 0 10.5263 0.443929 10.1861 1.11719H9.74021C8.90643 1.11719 8.14858 1.44625 7.5879 1.98052H3.71041C2.34516 1.98052 1.23442 3.09125 1.23442 4.4565V23.524C1.23442 24.8893 2.34516 26 3.71041 26H20.2896C21.6548 26 22.7656 24.8893 22.7656 23.524V4.4565C22.7656 3.09125 21.6549 1.98052 20.2896 1.98052ZM9.74026 2.13281H10.5317C10.7601 2.13281 10.9604 1.98031 11.0212 1.76018C11.1423 1.32178 11.5448 1.01562 12 1.01562C12.4552 1.01562 12.8577 1.32178 12.9788 1.76018C13.0396 1.98031 13.2399 2.13281 13.4683 2.13281H14.2587C15.3609 2.13281 16.2681 2.98339 16.3587 4.06254H7.64026C7.7308 2.98339 8.63811 2.13281 9.74026 2.13281ZM21.75 23.5241C21.75 24.3293 21.0949 24.9844 20.2896 24.9844H3.71041C2.90517 24.9844 2.25004 24.3293 2.25004 23.5241V4.4565C2.25004 3.65127 2.90517 2.99614 3.71041 2.99614H6.87646C6.7101 3.37761 6.61722 3.79818 6.61722 4.24028V4.57035C6.61722 4.85082 6.84457 5.07817 7.12503 5.07817H16.8739C17.1544 5.07817 17.3818 4.85082 17.3818 4.57035V4.24028C17.3818 3.79823 17.2889 3.37761 17.1225 2.99614H20.2896C21.0949 2.99614 21.75 3.65127 21.75 4.4565V23.5241Z" fill="black"/>
<path d="M8.77081 7.59667C8.57251 7.39837 8.25096 7.39837 8.05266 7.59662L5.88115 9.76818L5.21221 9.09919C5.01391 8.90094 4.69236 8.90094 4.49401 9.09919C4.29571 9.29749 4.29571 9.61903 4.49401 9.81738L5.52208 10.8455C5.62125 10.9446 5.7512 10.9942 5.88115 10.9942C6.0111 10.9942 6.1411 10.9446 6.24023 10.8455L8.77081 8.31487C8.96911 8.11657 8.96911 7.79502 8.77081 7.59667Z" fill="black"/>
<path d="M7.53128 18.6875H5.09379C4.81332 18.6875 4.58598 18.9148 4.58598 19.1953V21.6328C4.58598 21.9133 4.81332 22.1406 5.09379 22.1406H7.53128C7.81175 22.1406 8.0391 21.9133 8.0391 21.6328V19.1953C8.0391 18.9148 7.81175 18.6875 7.53128 18.6875ZM7.02347 21.125H5.6016V19.7031H7.02347V21.125Z" fill="black"/>
<path d="M7.53128 13.2031H5.09379C4.81332 13.2031 4.58598 13.4305 4.58598 13.7109V16.1484C4.58598 16.4289 4.81332 16.6562 5.09379 16.6562H7.53128C7.81175 16.6562 8.0391 16.4289 8.0391 16.1484V13.7109C8.0391 13.4305 7.81175 13.2031 7.53128 13.2031ZM7.02347 15.6406H5.6016V14.2187H7.02347V15.6406Z" fill="black"/>
</g>
</g>
<defs>
<clipPath id="clip0">
<rect width="26" height="26" fill="white"/>
</clipPath>
<clipPath id="clip1">
<rect width="26" height="26" fill="white" transform="translate(-1)"/>
</clipPath>
</defs>
</svg>
