<svg width="26" height="26" viewBox="0 0 26 26" fill="none" xmlns="http://www.w3.org/2000/svg">
<g opacity="0.3">
<path d="M14.0963 13.2397L8.48727 9.18237C8.31567 9.05887 8.07777 9.07707 7.92697 9.22743C7.77617 9.37823 7.75753 9.6157 7.8819 9.78773L11.9401 15.3977C12.2061 15.7638 12.6174 15.9939 13.0685 16.029C13.1092 16.0321 13.1495 16.0334 13.1894 16.0334C13.5976 16.0334 13.9902 15.8722 14.2809 15.581C14.6003 15.2616 14.7637 14.82 14.7286 14.3689C14.6935 13.9178 14.4634 13.5066 14.0963 13.2397ZM13.6682 14.9682C13.5278 15.1082 13.3324 15.1797 13.1361 15.1645C12.9385 15.1494 12.7578 15.048 12.6416 14.8885L10.166 11.4665L13.5872 13.9412C13.7479 14.0582 13.8489 14.2389 13.8645 14.437C13.8801 14.6341 13.8082 14.8283 13.6682 14.9682Z" fill="black"/>
<path d="M24.3018 11.2762C24.3013 11.2749 24.3018 11.2732 24.3013 11.2719C24.3009 11.2701 24.2996 11.2688 24.2992 11.2671C24.034 10.2795 23.6414 9.3444 23.1422 8.47773C23.1378 8.46863 23.1378 8.4591 23.1326 8.45C23.1274 8.44133 23.1192 8.43657 23.1136 8.42833C22.6755 7.6765 22.1572 6.97797 21.5683 6.34443L22.4987 5.41407L23.1118 6.0268L24.95 4.1886L23.1118 2.34997L21.2732 4.1886L21.8859 4.80133L20.9556 5.7317C20.322 5.14323 19.6235 4.62453 18.8717 4.18643C18.8634 4.1808 18.8587 4.17257 18.85 4.16737C18.8413 4.16217 18.8309 4.1626 18.8223 4.15783C17.9556 3.6582 17.0205 3.26603 16.0333 3.00083C16.0316 3.0004 16.0303 2.9991 16.0286 2.99867C16.0268 2.99823 16.0255 2.99867 16.0242 2.99867C15.4644 2.84873 14.8889 2.73953 14.3 2.6741V2.16667H14.95C15.5476 2.16667 16.0333 1.6809 16.0333 1.08333C16.0333 0.485767 15.5476 0 14.95 0H11.05C10.4524 0 9.96667 0.485767 9.96667 1.08333C9.96667 1.6809 10.4524 2.16667 11.05 2.16667H11.7V2.6741C11.1111 2.73953 10.5356 2.84873 9.9762 2.99867C9.97446 2.9991 9.97316 2.99867 9.97186 2.9991C9.97013 2.99953 9.96883 3.00083 9.9671 3.00127C8.97996 3.26647 8.04483 3.65907 7.17816 4.15827C7.16906 4.1626 7.1591 4.1626 7.15 4.1678C7.14133 4.173 7.13657 4.18123 7.12833 4.18687C6.37693 4.62497 5.67796 5.14323 5.04443 5.73213L4.11406 4.80133L4.7268 4.1886L2.88816 2.34997L1.04996 4.1886L2.88816 6.0268L3.50133 5.41407L4.4317 6.34443C3.84323 6.97797 3.32453 7.6765 2.88687 8.42833C2.88123 8.43657 2.87256 8.44133 2.8678 8.45C2.8626 8.4591 2.86303 8.46863 2.85827 8.47773C2.35863 9.3444 1.96646 10.2795 1.70126 11.2671C1.70083 11.2688 1.69953 11.2701 1.6991 11.2719C1.69866 11.2732 1.6991 11.2749 1.69866 11.2762C1.43996 12.2417 1.3 13.2544 1.3 14.3C1.3 15.3456 1.43996 16.3583 1.69823 17.3238C1.69866 17.3255 1.69823 17.3268 1.69866 17.3281C1.6991 17.3303 1.70083 17.332 1.70126 17.3342C1.96646 18.3213 2.35863 19.256 2.85783 20.1223C2.86216 20.1314 2.86216 20.1409 2.86737 20.15C2.87473 20.1626 2.88513 20.1721 2.89336 20.1838C3.3982 21.0474 4.00833 21.8422 4.70946 22.5472C4.7164 22.5554 4.719 22.5654 4.7268 22.5732C4.7346 22.581 4.74457 22.5836 4.7528 22.5905C5.46087 23.2951 6.25993 23.9074 7.12833 24.4136C7.13657 24.4192 7.14133 24.4274 7.15 24.4326C7.163 24.44 7.1773 24.4435 7.19073 24.4495C8.0535 24.9453 8.98473 25.3353 9.9671 25.5992C9.96883 25.5996 9.97013 25.6009 9.97186 25.6013C9.97403 25.6018 9.9762 25.6018 9.97836 25.6022C10.943 25.8605 11.9552 26 13 26C14.0448 26 15.057 25.8605 16.0216 25.6022C16.0238 25.6018 16.026 25.6022 16.0281 25.6013C16.0299 25.6009 16.0312 25.5996 16.0329 25.5992C17.0153 25.3353 17.9461 24.9453 18.8093 24.4495C18.8227 24.4435 18.837 24.4404 18.85 24.4326C18.8587 24.4274 18.8634 24.4192 18.8717 24.4136C19.7401 23.9074 20.5387 23.2951 21.2472 22.5905C21.2554 22.5836 21.2654 22.581 21.2732 22.5732C21.281 22.5654 21.2836 22.555 21.2905 22.5472C21.9917 21.8422 22.6018 21.0474 23.1066 20.1838C23.1149 20.1721 23.1253 20.163 23.1326 20.15C23.1378 20.1409 23.1374 20.1314 23.1422 20.1223C23.6414 19.256 24.0335 18.3213 24.2987 17.3342C24.2992 17.332 24.3009 17.3303 24.3013 17.3281C24.3018 17.3268 24.3013 17.3251 24.3018 17.3238C24.56 16.3583 24.7 15.3456 24.7 14.3C24.7 13.2544 24.56 12.2417 24.3018 11.2762ZM23.1118 3.57543L23.7246 4.1886L23.1118 4.80133L22.4987 4.1886L23.1118 3.57543ZM2.27543 4.1886L2.88816 3.57543L3.50133 4.1886L2.88816 4.80133L2.27543 4.1886ZM22.5147 17.2982L23.3445 17.5205C23.1474 18.1523 22.8917 18.7586 22.5875 19.3353L21.8478 18.9081C21.6407 18.788 21.3755 18.8587 21.2559 19.0667C21.1363 19.2742 21.2073 19.539 21.4145 19.6586L22.1524 20.0846C21.8001 20.6401 21.4002 21.1618 20.9556 21.6428L20.3537 21.0409C20.1842 20.8715 19.9104 20.8715 19.7409 21.0409C19.5715 21.2104 19.5715 21.4842 19.7409 21.6537L20.3428 22.2556C19.8618 22.7002 19.3401 23.1001 18.7846 23.4524L18.3586 22.7145C18.2386 22.5065 17.9729 22.4354 17.7667 22.5559C17.5591 22.6755 17.488 22.9407 17.6081 23.1478L18.0353 23.8875C17.4586 24.1917 16.8528 24.4474 16.2205 24.6445L15.9982 23.8151C15.9363 23.5837 15.6988 23.4459 15.4674 23.5088C15.2364 23.5707 15.0991 23.8082 15.161 24.0396L15.3825 24.8664C14.7515 25.0085 14.1002 25.0961 13.4333 25.1225V24.2667C13.4333 24.027 13.2396 23.8333 13 23.8333C12.7604 23.8333 12.5667 24.027 12.5667 24.2667V25.1225C11.8998 25.0961 11.2485 25.0085 10.6175 24.8664L10.839 24.0396C10.9009 23.8086 10.7636 23.5707 10.5326 23.5088C10.3016 23.4464 10.0637 23.5837 10.0018 23.8151L9.77946 24.6445C9.14767 24.4474 8.54143 24.1917 7.96466 23.8875L8.39193 23.1478C8.51153 22.9402 8.44046 22.6755 8.23333 22.5559C8.0262 22.4358 7.761 22.5065 7.6414 22.7145L7.21543 23.4524C6.6599 23.1001 6.13816 22.7002 5.65717 22.2556L6.25907 21.6537C6.4285 21.4842 6.4285 21.2104 6.25907 21.0409C6.08963 20.8715 5.81576 20.8715 5.64633 21.0409L5.04443 21.6428C4.59983 21.1618 4.19986 20.6401 3.84756 20.0846L4.58553 19.6586C4.7931 19.539 4.86416 19.2738 4.74413 19.0667C4.6241 18.8587 4.35846 18.7876 4.1522 18.9081L3.4125 19.3353C3.1083 18.7586 2.85263 18.1528 2.65546 17.5205L3.4853 17.2982C3.71626 17.2363 3.85363 16.9988 3.79166 16.7674C3.73013 16.536 3.49267 16.3982 3.26083 16.461L2.4336 16.6825C2.2919 16.0515 2.20393 15.4002 2.1775 14.7333H3.03333C3.27296 14.7333 3.46666 14.5396 3.46666 14.3C3.46666 14.0604 3.27296 13.8667 3.03333 13.8667H2.1775C2.20393 13.1998 2.29146 12.5485 2.4336 11.9175L3.26083 12.1394C3.29853 12.1494 3.33623 12.1541 3.3735 12.1541C3.5646 12.1541 3.73966 12.0267 3.79166 11.833C3.85406 11.6021 3.71626 11.3642 3.4853 11.3022L2.65546 11.0795C2.85263 10.4477 3.1083 9.84143 3.4125 9.26467L4.1522 9.69193C4.2198 9.73137 4.29433 9.75 4.368 9.75C4.51793 9.75 4.66353 9.67243 4.7437 9.53333C4.8633 9.32577 4.79223 9.061 4.5851 8.9414L3.84713 8.51543C4.19943 7.9599 4.5994 7.43817 5.044 6.95717L5.6459 7.55907C5.7304 7.64357 5.84133 7.68603 5.95226 7.68603C6.0632 7.68603 6.17413 7.64357 6.25863 7.55907C6.42806 7.38963 6.42806 7.11577 6.25863 6.94633L5.65673 6.34443C6.13773 5.90027 6.65946 5.49987 7.215 5.14757L7.64096 5.88597C7.72156 6.02463 7.86673 6.10263 8.01666 6.10263C8.09033 6.10263 8.16487 6.084 8.2329 6.04457C8.44046 5.92497 8.51153 5.65977 8.3915 5.45263L7.96423 4.7125C8.541 4.4083 9.1468 4.15263 9.77903 3.95547L10.0013 4.7853C10.0529 4.97857 10.228 5.1064 10.4195 5.1064C10.4568 5.1064 10.4945 5.10163 10.5322 5.09167C10.7631 5.0297 10.9005 4.79223 10.8385 4.56083L10.6171 3.7336C11.125 3.6192 11.6454 3.54077 12.1771 3.5009C12.3114 3.49093 12.4328 3.48357 12.5502 3.47793C12.5558 3.47793 12.561 3.47793 12.5667 3.4775V4.33333C12.5667 4.57297 12.7604 4.76667 13 4.76667C13.2396 4.76667 13.4333 4.57297 13.4333 4.33333V3.4775C13.439 3.4775 13.4442 3.4775 13.4498 3.47793C13.5672 3.48357 13.6881 3.49093 13.8229 3.5009C14.3546 3.5412 14.8755 3.6192 15.3829 3.7336L15.1615 4.56083C15.0995 4.7918 15.2369 5.0297 15.4678 5.09167C15.5055 5.10163 15.5432 5.1064 15.5805 5.1064C15.7716 5.1064 15.9471 4.97857 15.9987 4.7853L16.221 3.95547C16.8528 4.15263 17.459 4.4083 18.0358 4.7125L17.6085 5.45263C17.4889 5.6602 17.56 5.92497 17.7671 6.04457C17.8351 6.084 17.9097 6.10263 17.9833 6.10263C18.1333 6.10263 18.2789 6.02463 18.359 5.88597L18.785 5.14757C19.3405 5.49987 19.8623 5.90027 20.3433 6.34443L19.7414 6.94633C19.5719 7.11577 19.5719 7.38963 19.7414 7.55907C19.8259 7.64357 19.9368 7.68603 20.0477 7.68603C20.1587 7.68603 20.2696 7.64357 20.3541 7.55907L20.956 6.95717C21.4006 7.43817 21.8006 7.9599 22.1529 8.51543L21.4149 8.9414C21.2073 9.061 21.1363 9.32577 21.2563 9.53333C21.3369 9.67243 21.4821 9.75 21.632 9.75C21.7057 9.75 21.7802 9.73137 21.8482 9.69193L22.5879 9.26467C22.8921 9.84143 23.1478 10.4472 23.345 11.0795L22.5151 11.3022C22.2842 11.3642 22.1464 11.6016 22.2088 11.833C22.2608 12.0267 22.4354 12.1541 22.6269 12.1541C22.6642 12.1541 22.7019 12.1494 22.7396 12.1394L23.5668 11.9175C23.709 12.5485 23.7965 13.1998 23.8229 13.8667H22.9667C22.727 13.8667 22.5333 14.0604 22.5333 14.3C22.5333 14.5396 22.727 14.7333 22.9667 14.7333H23.8225C23.7961 15.4002 23.7085 16.0515 23.5664 16.6829L22.7392 16.4615C22.5091 16.3991 22.2703 16.5369 22.2083 16.7678C22.1464 16.9988 22.2837 17.2363 22.5147 17.2982ZM12.5667 2.60953V1.3H11.05C10.9308 1.3 10.8333 1.2025 10.8333 1.08333C10.8333 0.964167 10.9308 0.866667 11.05 0.866667H14.95C15.0692 0.866667 15.1667 0.964167 15.1667 1.08333C15.1667 1.2025 15.0692 1.3 14.95 1.3H13.4333V2.60953C13.2817 2.60303 13.1391 2.6 13 2.6C12.8609 2.6 12.7183 2.60303 12.5667 2.60953Z" fill="black"/>
</g>
</svg>
