<svg width="400" height="240" viewBox="0 0 400 240" fill="none" xmlns="http://www.w3.org/2000/svg">
<g filter="url(#filter0_dd)">
<path fill-rule="evenodd" clip-rule="evenodd" d="M10 6C10 3.79083 11.7909 2 14 2H341.5C340.672 2 340 2.67157 340 3.5V7.375C340 8.20343 340.672 8.875 341.5 8.875C342.328 8.875 343 8.20343 343 7.375V3.5C343 2.67157 342.328 2 341.5 2H386C388.209 2 390 3.79083 390 6V84.0879C390 86.2645 388.245 88.0055 386.107 88.41C375.228 90.4673 367 100.023 367 111.5C367 122.977 375.228 132.533 386.107 134.59C388.245 134.994 390 136.736 390 138.912V218C390 220.209 388.209 222 386 222H341.5C342.328 222 343 221.328 343 220.5V216.625C343 215.797 342.328 215.125 341.5 215.125C340.672 215.125 340 215.797 340 216.625V220.5C340 221.328 340.672 222 341.5 222H14C11.7908 222 10 220.209 10 218V6ZM343 15.125C343 14.2966 342.328 13.625 341.5 13.625C340.672 13.625 340 14.2966 340 15.125V22.875C340 23.7034 340.672 24.375 341.5 24.375C342.328 24.375 343 23.7034 343 22.875V15.125ZM343 30.625C343 29.7966 342.328 29.125 341.5 29.125C340.672 29.125 340 29.7966 340 30.625V38.375C340 39.2034 340.672 39.875 341.5 39.875C342.328 39.875 343 39.2034 343 38.375V30.625ZM343 46.125C343 45.2966 342.328 44.625 341.5 44.625C340.672 44.625 340 45.2966 340 46.125V53.875C340 54.7034 340.672 55.375 341.5 55.375C342.328 55.375 343 54.7034 343 53.875V46.125ZM343 61.625C343 60.7966 342.328 60.125 341.5 60.125C340.672 60.125 340 60.7966 340 61.625V69.375C340 70.2034 340.672 70.875 341.5 70.875C342.328 70.875 343 70.2034 343 69.375V61.625ZM343 77.125C343 76.2966 342.328 75.625 341.5 75.625C340.672 75.625 340 76.2966 340 77.125V84.875C340 85.7034 340.672 86.375 341.5 86.375C342.328 86.375 343 85.7034 343 84.875V77.125ZM343 92.625C343 91.7966 342.328 91.125 341.5 91.125C340.672 91.125 340 91.7966 340 92.625V100.375C340 101.203 340.672 101.875 341.5 101.875C342.328 101.875 343 101.203 343 100.375V92.625ZM343 108.125C343 107.297 342.328 106.625 341.5 106.625C340.672 106.625 340 107.297 340 108.125V115.875C340 116.703 340.672 117.375 341.5 117.375C342.328 117.375 343 116.703 343 115.875V108.125ZM343 123.625C343 122.797 342.328 122.125 341.5 122.125C340.672 122.125 340 122.797 340 123.625V131.375C340 132.203 340.672 132.875 341.5 132.875C342.328 132.875 343 132.203 343 131.375V123.625ZM343 139.125C343 138.297 342.328 137.625 341.5 137.625C340.672 137.625 340 138.297 340 139.125V146.875C340 147.703 340.672 148.375 341.5 148.375C342.328 148.375 343 147.703 343 146.875V139.125ZM343 154.625C343 153.797 342.328 153.125 341.5 153.125C340.672 153.125 340 153.797 340 154.625V162.375C340 163.203 340.672 163.875 341.5 163.875C342.328 163.875 343 163.203 343 162.375V154.625ZM343 170.125C343 169.297 342.328 168.625 341.5 168.625C340.672 168.625 340 169.297 340 170.125V177.875C340 178.703 340.672 179.375 341.5 179.375C342.328 179.375 343 178.703 343 177.875V170.125ZM343 185.625C343 184.797 342.328 184.125 341.5 184.125C340.672 184.125 340 184.797 340 185.625V193.375C340 194.203 340.672 194.875 341.5 194.875C342.328 194.875 343 194.203 343 193.375V185.625ZM343 201.125C343 200.297 342.328 199.625 341.5 199.625C340.672 199.625 340 200.297 340 201.125V208.875C340 209.703 340.672 210.375 341.5 210.375C342.328 210.375 343 209.703 343 208.875V201.125Z" fill="#FFF8F3"/>
</g>
<defs>
<filter id="filter0_dd" x="0" y="0" width="400" height="240" filterUnits="userSpaceOnUse" color-interpolation-filters="sRGB">
<feFlood flood-opacity="0" result="BackgroundImageFix"/>
<feColorMatrix in="SourceAlpha" type="matrix" values="0 0 0 0 0 0 0 0 0 0 0 0 0 0 0 0 0 0 127 0"/>
<feOffset dy="4"/>
<feGaussianBlur stdDeviation="3"/>
<feColorMatrix type="matrix" values="0 0 0 0 0 0 0 0 0 0 0 0 0 0 0 0 0 0 0.15 0"/>
<feBlend mode="normal" in2="BackgroundImageFix" result="effect1_dropShadow"/>
<feColorMatrix in="SourceAlpha" type="matrix" values="0 0 0 0 0 0 0 0 0 0 0 0 0 0 0 0 0 0 127 0"/>
<feOffset dy="8"/>
<feGaussianBlur stdDeviation="5"/>
<feColorMatrix type="matrix" values="0 0 0 0 0 0 0 0 0 0 0 0 0 0 0 0 0 0 0.25 0"/>
<feBlend mode="normal" in2="effect1_dropShadow" result="effect2_dropShadow"/>
<feBlend mode="normal" in="SourceGraphic" in2="effect2_dropShadow" result="shape"/>
</filter>
</defs>
</svg>
